# Blender 3.3.1
# www.blender.org
mtllib firing line.mtl
o Cube
v -0.113019 0.175959 4.785158
v -0.113019 -0.101491 4.785158
v 0.186700 0.175959 4.785158
v 0.186700 -0.101491 4.785158
v -0.113019 0.175959 6.785158
v -0.113019 -0.101491 6.785158
v 0.186700 0.175959 6.785158
v 0.186700 -0.101491 6.785158
v -0.830136 -1.000000 8.785158
v 1.169864 -1.000000 8.785158
v 1.169864 1.000000 8.785158
v -0.830136 1.000000 8.785158
v -0.113019 -0.101491 10.785158
v 0.186700 -0.101491 10.785158
v 0.186700 0.175959 10.785158
v -0.113019 0.175959 10.785158
v -0.113020 -0.101491 12.785158
v 0.186699 -0.101491 12.785158
v 0.186699 0.175959 12.785158
v -0.113020 0.175959 12.785158
v -0.830137 -1.000000 14.785158
v 1.169863 -1.000000 14.785158
v 1.169863 1.000000 14.785158
v -0.830137 1.000000 14.785158
v -0.113020 -0.101491 16.785158
v 0.186699 -0.101491 16.785158
v 0.186699 0.175959 16.785158
v -0.113020 0.175959 16.785158
v -0.113020 -0.101491 18.785158
v 0.186699 -0.101491 18.785158
v 0.186699 0.175959 18.785158
v -0.113020 0.175959 18.785158
v -0.830137 -1.000000 20.785158
v 1.169863 -1.000000 20.785158
v 1.169863 1.000000 20.785158
v -0.830137 1.000000 20.785158
v -0.113020 -0.101491 22.785158
v 0.186699 -0.101491 22.785158
v 0.186699 0.175959 22.785158
v -0.113020 0.175959 22.785158
v -0.113020 -0.101491 24.785158
v 0.186699 -0.101491 24.785158
v 0.186699 0.175959 24.785158
v -0.113020 0.175959 24.785158
v -0.830137 -1.000000 26.785158
v 1.169863 -1.000000 26.785158
v 1.169863 1.000000 26.785158
v -0.830137 1.000000 26.785158
v -0.113021 -0.101491 28.785158
v 0.186698 -0.101491 28.785158
v 0.186698 0.175959 28.785158
v -0.113021 0.175959 28.785158
v -0.113021 -0.101491 30.785158
v 0.186698 -0.101491 30.785158
v 0.186698 0.175959 30.785158
v -0.113021 0.175959 30.785158
v -0.830138 -1.000000 32.785156
v 1.169862 -1.000000 32.785156
v 1.169862 1.000000 32.785156
v -0.830138 1.000000 32.785156
v -0.113021 -0.101491 34.785156
v 0.186698 -0.101491 34.785156
v 0.186698 0.175959 34.785156
v -0.113021 0.175959 34.785156
v -0.113021 -0.101491 36.785156
v 0.186698 -0.101491 36.785156
v 0.186698 0.175959 36.785156
v -0.113021 0.175959 36.785156
v -0.830138 -1.000000 38.785156
v 1.169862 -1.000000 38.785156
v 1.169862 1.000000 38.785156
v -0.830138 1.000000 38.785156
v -0.113022 -0.101491 40.785156
v 0.186697 -0.101491 40.785156
v 0.186697 0.175959 40.785156
v -0.113022 0.175959 40.785156
v -0.113022 -0.101491 42.785156
v 0.186697 -0.101491 42.785156
v 0.186697 0.175959 42.785156
v -0.113022 0.175959 42.785156
v -0.830139 -1.000000 44.785156
v 1.169861 -1.000000 44.785156
v 1.169861 1.000000 44.785156
v -0.830139 1.000000 44.785156
v -0.113022 -0.101491 46.785156
v 0.186697 -0.101491 46.785156
v 0.186697 0.175959 46.785156
v -0.113022 0.175959 46.785156
v -0.113022 -0.101491 48.785156
v 0.186697 -0.101491 48.785156
v 0.186697 0.175959 48.785156
v -0.113022 0.175959 48.785156
v -0.830139 -1.000000 50.785156
v 1.169861 -1.000000 50.785156
v 1.169861 1.000000 50.785156
v -0.830139 1.000000 50.785156
v -0.113023 -0.101491 52.785156
v 0.186696 -0.101491 52.785156
v 0.186696 0.175959 52.785156
v -0.113023 0.175959 52.785156
v -0.113023 -0.101491 54.785156
v 0.186696 -0.101491 54.785156
v 0.186696 0.175959 54.785156
v -0.113023 0.175959 54.785156
v -0.830140 -1.000000 56.785156
v 1.169860 -1.000000 56.785156
v 1.169860 1.000000 56.785156
v -0.830140 1.000000 56.785156
v -0.113023 -0.101491 58.785156
v 0.186696 -0.101491 58.785156
v 0.186696 0.175959 58.785156
v -0.113023 0.175959 58.785156
v -0.113023 -0.101491 60.785156
v 0.186696 -0.101491 60.785156
v 0.186696 0.175959 60.785156
v -0.113023 0.175959 60.785156
v -0.830140 -1.000000 62.785156
v 1.169860 -1.000000 62.785156
v 1.169860 1.000000 62.785156
v -0.830140 1.000000 62.785156
v -0.113023 -0.101491 64.785156
v 0.186696 -0.101491 64.785156
v 0.186696 0.175959 64.785156
v -0.113023 0.175959 64.785156
v -0.113024 -0.101491 66.785156
v 0.186695 -0.101491 66.785156
v 0.186695 0.175959 66.785156
v -0.113024 0.175959 66.785156
v -0.830141 -1.000000 68.785156
v 1.169859 -1.000000 68.785156
v 1.169859 1.000000 68.785156
v -0.830141 1.000000 68.785156
v -0.830141 -1.000000 70.785156
v 1.169859 -1.000000 70.785156
v 1.169859 1.000000 70.785156
v -0.830141 1.000000 70.785156
vn -0.0000 1.0000 -0.0000
vn 1.0000 -0.0000 -0.0000
vn -0.0000 0.9246 -0.3810
vn -0.0000 -1.0000 -0.0000
vn -0.0000 -0.0000 -1.0000
vn -1.0000 -0.0000 -0.0000
vn -0.9413 -0.0000 0.3375
vn -0.9413 -0.0000 -0.3375
vn 0.8974 -0.0000 -0.4412
vn -0.0000 -0.9122 -0.4098
vn -0.0000 -0.9122 0.4098
vn -0.0000 0.9246 0.3810
vn 0.8974 -0.0000 0.4412
vn -0.0000 -0.0000 1.0000
vt 0.080035 0.000000
vt 0.121199 0.034840
vt 0.103383 0.000000
vt 0.125402 0.034840
vt 0.041164 0.000000
vt 0.107587 0.000000
vt 0.075494 0.000000
vt 0.017816 0.000000
vt 0.121199 0.030300
vt 0.013612 0.000000
vt 0.045705 0.000000
vt 0.125402 0.030300
vt 0.080035 0.030297
vt 0.103383 0.030298
vt 0.041164 0.030297
vt 0.107587 0.030298
vt 0.075494 0.030297
vt 0.017816 0.030297
vt 0.013612 0.030297
vt 0.045705 0.030297
vt 0.121199 0.060711
vt 0.030300 0.060773
vt 0.000000 0.060806
vt 0.060599 0.060773
vt 0.060599 0.060746
vt 0.030300 0.060806
vt 0.090899 0.060746
vt 0.041164 0.090891
vt 0.107587 0.090894
vt 0.045705 0.090891
vt 0.013612 0.090890
vt 0.075494 0.090892
vt 0.017816 0.090890
vt 0.103383 0.090894
vt 0.080035 0.090892
vt 0.041164 0.121188
vt 0.107587 0.121192
vt 0.013612 0.121186
vt 0.045705 0.121188
vt 0.075494 0.121190
vt 0.017816 0.121186
vt 0.080035 0.121190
vt 0.103383 0.121192
vt 0.121199 0.151605
vt 0.030300 0.151664
vt 0.000000 0.151696
vt 0.060599 0.151664
vt 0.060599 0.151639
vt 0.030300 0.151696
vt 0.090899 0.151639
vt 0.041164 0.181782
vt 0.107587 0.181788
vt 0.013612 0.181779
vt 0.045705 0.181782
vt 0.075494 0.181785
vt 0.017816 0.181779
vt 0.103383 0.181788
vt 0.080035 0.181785
vt 0.041164 0.212079
vt 0.107587 0.212086
vt 0.013612 0.212076
vt 0.045705 0.212079
vt 0.017816 0.212076
vt 0.075494 0.212082
vt 0.103383 0.212086
vt 0.080035 0.212082
vt 0.121199 0.242499
vt 0.030300 0.242555
vt 0.000000 0.242586
vt 0.060599 0.242555
vt 0.060599 0.242531
vt 0.030300 0.242586
vt 0.090899 0.242531
vt 0.041164 0.272673
vt 0.107587 0.272682
vt 0.013612 0.272669
vt 0.045705 0.272673
vt 0.075494 0.272677
vt 0.017816 0.272669
vt 0.103383 0.272682
vt 0.080035 0.272677
vt 0.041164 0.302971
vt 0.107587 0.302980
vt 0.045705 0.302971
vt 0.013612 0.302966
vt 0.075494 0.302974
vt 0.017816 0.302966
vt 0.103383 0.302980
vt 0.080035 0.302974
vt 0.121199 0.333393
vt 0.030300 0.333447
vt 0.000000 0.333475
vt 0.060599 0.333447
vt 0.060599 0.333423
vt 0.030300 0.333475
vt 0.090899 0.333393
vt 0.041164 0.363565
vt 0.107587 0.363576
vt 0.013612 0.363559
vt 0.045705 0.363565
vt 0.075494 0.363569
vt 0.017816 0.363559
vt 0.103383 0.363576
vt 0.080035 0.363569
vt 0.041164 0.393862
vt 0.107587 0.393874
vt 0.013612 0.393856
vt 0.045705 0.393862
vt 0.075494 0.393867
vt 0.017816 0.393856
vt 0.103383 0.393874
vt 0.080035 0.393867
vt 0.121199 0.424287
vt 0.030300 0.424338
vt 0.000000 0.424365
vt 0.060599 0.424338
vt 0.060599 0.424316
vt 0.030300 0.424365
vt 0.090899 0.424316
vt 0.041164 0.454456
vt 0.107587 0.454469
vt 0.013612 0.454449
vt 0.045705 0.454456
vt 0.075494 0.454462
vt 0.017816 0.454449
vt 0.103383 0.454469
vt 0.080035 0.454462
vt 0.041164 0.484753
vt 0.107587 0.484767
vt 0.013612 0.484745
vt 0.045705 0.484753
vt 0.075494 0.484759
vt 0.017816 0.484745
vt 0.103383 0.484767
vt 0.080035 0.484759
vt 0.121199 0.515181
vt 0.030300 0.515229
vt 0.000000 0.515255
vt 0.060599 0.515229
vt 0.060599 0.515208
vt 0.030300 0.515255
vt 0.090899 0.515208
vt 0.041164 0.545347
vt 0.107587 0.545363
vt 0.013612 0.545338
vt 0.045705 0.545347
vt 0.075494 0.545354
vt 0.017816 0.545338
vt 0.103383 0.545363
vt 0.080035 0.545354
vt 0.041164 0.575644
vt 0.107587 0.575661
vt 0.013612 0.575635
vt 0.045705 0.575644
vt 0.075494 0.575651
vt 0.017816 0.575635
vt 0.103383 0.575661
vt 0.080035 0.575651
vt 0.121199 0.606075
vt 0.030300 0.606120
vt 0.000000 0.606145
vt 0.060599 0.606120
vt 0.060599 0.606100
vt 0.030300 0.606145
vt 0.090899 0.606100
vt 0.041164 0.636238
vt 0.107587 0.636257
vt 0.045705 0.636238
vt 0.013612 0.636228
vt 0.075494 0.636246
vt 0.017816 0.636228
vt 0.103383 0.636257
vt 0.080035 0.636246
vt 0.041164 0.666535
vt 0.107587 0.666555
vt 0.045705 0.666535
vt 0.013612 0.666525
vt 0.075494 0.666544
vt 0.017816 0.666525
vt 0.103383 0.666555
vt 0.080035 0.666544
vt 0.030300 0.697011
vt 0.121199 0.696968
vt 0.000000 0.697034
vt 0.060599 0.697011
vt 0.060599 0.696993
vt 0.030300 0.697034
vt 0.090899 0.696968
vt 0.041164 0.727129
vt 0.107587 0.727151
vt 0.013612 0.727118
vt 0.045705 0.727129
vt 0.075494 0.727139
vt 0.017816 0.727118
vt 0.103383 0.727151
vt 0.080035 0.727139
vt 0.107587 0.757449
vt 0.041164 0.757426
vt 0.045705 0.757426
vt 0.013612 0.757414
vt 0.075494 0.757436
vt 0.017816 0.757414
vt 0.103383 0.757449
vt 0.080035 0.757436
vt 0.121199 0.787862
vt 0.030300 0.787902
vt 0.000000 0.787924
vt 0.060599 0.787902
vt 0.060599 0.787885
vt 0.030300 0.787924
vt 0.090899 0.787862
vt 0.041164 0.818020
vt 0.107587 0.818045
vt 0.013612 0.818008
vt 0.045705 0.818020
vt 0.075494 0.818031
vt 0.017816 0.818008
vt 0.103383 0.818045
vt 0.080035 0.818031
vt 0.107587 0.848343
vt 0.041164 0.848317
vt 0.045705 0.848317
vt 0.013612 0.848304
vt 0.075494 0.848328
vt 0.017816 0.848304
vt 0.103383 0.848343
vt 0.080035 0.848328
vt 0.121199 0.878756
vt 0.030300 0.878793
vt 0.000000 0.878814
vt 0.060599 0.878793
vt 0.060599 0.878777
vt 0.030300 0.878814
vt 0.090899 0.878756
vt 0.041164 0.908911
vt 0.107587 0.908939
vt 0.013612 0.908897
vt 0.045705 0.908911
vt 0.075494 0.908923
vt 0.017816 0.908897
vt 0.103383 0.908939
vt 0.080035 0.908923
vt 0.041164 0.939209
vt 0.107587 0.939237
vt 0.045705 0.939209
vt 0.013612 0.939194
vt 0.075494 0.939221
vt 0.017816 0.939194
vt 0.103383 0.939237
vt 0.080035 0.939221
vt 0.030300 0.969685
vt 0.121199 0.969650
vt 0.000000 0.969703
vt 0.060599 0.969685
vt 0.060599 0.969670
vt 0.030300 0.969703
vt 0.090899 0.969650
vt 0.121199 0.000000
vt 0.121199 0.999948
vt 0.030300 0.999982
vt 0.151498 0.000000
vt 0.000000 1.000000
vt 0.060599 0.999982
vt 0.060599 0.999967
vt 0.151498 0.030300
vt 0.030300 1.000000
vt 0.121199 0.030300
vt 0.090899 0.999948
s 0
usemtl Material
f 5/13/1 3/7/1 1/1/1
f 3/8/2 8/19/2 4/10/2
f 7/17/3 12/27/3 11/25/3
f 2/5/4 8/20/4 6/15/4
f 1/2/5 4/12/5 2/4/5
f 5/14/6 2/6/6 6/16/6
f 12/27/7 13/29/7 16/34/7
f 6/16/8 12/27/8 5/14/8
f 8/19/9 11/26/9 10/23/9
f 8/20/10 9/22/10 6/15/10
f 14/30/4 17/36/4 13/28/4
f 9/22/11 14/30/11 13/28/11
f 12/27/12 15/32/12 11/25/12
f 11/26/13 14/31/13 10/23/13
f 19/40/3 24/50/3 23/48/3
f 16/35/1 19/40/1 15/32/1
f 15/33/2 18/38/2 14/31/2
f 13/29/6 20/43/6 16/34/6
f 24/50/7 25/52/7 28/57/7
f 18/38/9 23/49/9 22/46/9
f 17/37/8 24/50/8 20/43/8
f 18/39/10 21/45/10 17/36/10
f 28/58/1 31/64/1 27/55/1
f 21/45/11 26/54/11 25/51/11
f 24/50/12 27/55/12 23/48/12
f 23/49/13 26/53/13 22/46/13
f 30/61/9 35/72/9 34/69/9
f 27/56/2 30/61/2 26/53/2
f 25/52/6 32/65/6 28/57/6
f 26/54/4 29/59/4 25/51/4
f 36/73/7 37/75/7 40/80/7
f 29/60/8 36/73/8 32/65/8
f 30/62/10 33/68/10 29/59/10
f 31/64/3 36/73/3 35/71/3
f 40/81/1 43/86/1 39/78/1
f 33/68/11 38/77/11 37/74/11
f 36/73/12 39/78/12 35/71/12
f 35/72/13 38/76/13 34/69/13
f 42/84/10 45/91/10 41/82/10
f 39/79/2 42/85/2 38/76/2
f 37/75/6 44/88/6 40/80/6
f 38/77/4 41/82/4 37/74/4
f 48/96/12 51/101/12 47/94/12
f 43/86/3 48/96/3 47/94/3
f 42/85/9 47/95/9 46/92/9
f 41/83/8 48/96/8 44/88/8
f 49/98/6 56/111/6 52/103/6
f 47/95/13 50/99/13 46/92/13
f 48/96/7 49/98/7 52/103/7
f 45/91/11 50/100/11 49/97/11
f 55/109/3 60/119/3 59/117/3
f 50/100/4 53/105/4 49/97/4
f 52/104/1 55/109/1 51/101/1
f 51/102/2 54/107/2 50/99/2
f 59/118/13 62/122/13 58/115/13
f 54/107/9 59/118/9 58/115/9
f 53/106/8 60/119/8 56/111/8
f 54/108/10 57/114/10 53/105/10
f 61/121/6 68/134/6 64/126/6
f 60/119/7 61/121/7 64/126/7
f 57/114/11 62/123/11 61/120/11
f 60/119/12 63/124/12 59/117/12
f 67/132/3 72/142/3 71/140/3
f 62/123/4 65/128/4 61/120/4
f 64/127/1 67/132/1 63/124/1
f 63/125/2 66/130/2 62/122/2
f 72/142/7 73/144/7 76/149/7
f 66/130/9 71/141/9 70/138/9
f 65/129/8 72/142/8 68/134/8
f 66/131/10 69/137/10 65/128/10
f 73/144/6 80/157/6 76/149/6
f 69/137/11 74/146/11 73/143/11
f 72/142/12 75/147/12 71/140/12
f 71/141/13 74/145/13 70/138/13
f 79/155/3 84/165/3 83/163/3
f 74/146/4 77/151/4 73/143/4
f 76/150/1 79/155/1 75/147/1
f 75/148/2 78/153/2 74/145/2
f 84/165/7 85/167/7 88/172/7
f 78/153/9 83/164/9 82/161/9
f 77/152/8 84/165/8 80/157/8
f 78/154/10 81/160/10 77/151/10
f 86/168/4 89/174/4 85/166/4
f 81/160/11 86/168/11 85/166/11
f 84/165/12 87/170/12 83/163/12
f 83/164/13 86/169/13 82/161/13
f 89/175/8 96/188/8 92/180/8
f 88/173/1 91/178/1 87/170/1
f 87/171/2 90/177/2 86/169/2
f 85/167/6 92/180/6 88/172/6
f 93/182/11 98/192/11 97/189/11
f 90/176/10 93/182/10 89/174/10
f 91/178/3 96/188/3 95/186/3
f 90/177/9 95/187/9 94/184/9
f 100/196/1 103/201/1 99/193/1
f 96/188/12 99/193/12 95/186/12
f 95/187/13 98/191/13 94/184/13
f 96/188/7 97/190/7 100/195/7
f 101/197/8 108/211/8 104/203/8
f 99/194/2 102/200/2 98/191/2
f 97/190/6 104/203/6 100/195/6
f 98/192/4 101/198/4 97/189/4
f 108/211/12 111/216/12 107/209/12
f 102/199/10 105/206/10 101/198/10
f 103/201/3 108/211/3 107/209/3
f 102/200/9 107/210/9 106/207/9
f 111/217/2 114/223/2 110/214/2
f 107/210/13 110/214/13 106/207/13
f 108/211/7 109/213/7 112/218/7
f 105/206/11 110/215/11 109/212/11
f 113/220/8 120/234/8 116/226/8
f 109/213/6 116/226/6 112/218/6
f 110/215/4 113/221/4 109/212/4
f 112/219/1 115/224/1 111/216/1
f 120/234/12 123/239/12 119/232/12
f 114/222/10 117/229/10 113/221/10
f 115/224/3 120/234/3 119/232/3
f 114/223/9 119/233/9 118/230/9
f 121/236/6 128/249/6 124/241/6
f 119/233/13 122/237/13 118/230/13
f 120/234/7 121/236/7 124/241/7
f 117/229/11 122/238/11 121/235/11
f 126/245/10 129/251/10 125/243/10
f 122/238/4 125/243/4 121/235/4
f 124/242/1 127/247/1 123/239/1
f 123/240/2 126/246/2 122/237/2
f 132/257/1 135/264/1 131/255/1
f 127/247/3 132/257/3 131/255/3
f 126/246/9 131/256/9 130/253/9
f 125/244/8 132/257/8 128/249/8
f 135/265/14 133/258/14 134/261/14
f 131/256/2 134/262/2 130/253/2
f 129/252/6 136/268/6 132/257/6
f 130/254/4 133/260/4 129/251/4
f 5/13/1 7/17/1 3/7/1
f 3/8/2 7/18/2 8/19/2
f 7/17/3 5/13/3 12/27/3
f 2/5/4 4/11/4 8/20/4
f 1/2/5 3/9/5 4/12/5
f 5/14/6 1/3/6 2/6/6
f 12/27/7 9/21/7 13/29/7
f 6/16/8 9/21/8 12/27/8
f 8/19/9 7/18/9 11/26/9
f 8/20/10 10/24/10 9/22/10
f 14/30/4 18/39/4 17/36/4
f 9/22/11 10/24/11 14/30/11
f 12/27/12 16/35/12 15/32/12
f 11/26/13 15/33/13 14/31/13
f 19/40/3 20/42/3 24/50/3
f 16/35/1 20/42/1 19/40/1
f 15/33/2 19/41/2 18/38/2
f 13/29/6 17/37/6 20/43/6
f 24/50/7 21/44/7 25/52/7
f 18/38/9 19/41/9 23/49/9
f 17/37/8 21/44/8 24/50/8
f 18/39/10 22/47/10 21/45/10
f 28/58/1 32/66/1 31/64/1
f 21/45/11 22/47/11 26/54/11
f 24/50/12 28/58/12 27/55/12
f 23/49/13 27/56/13 26/53/13
f 30/61/9 31/63/9 35/72/9
f 27/56/2 31/63/2 30/61/2
f 25/52/6 29/60/6 32/65/6
f 26/54/4 30/62/4 29/59/4
f 36/73/7 33/67/7 37/75/7
f 29/60/8 33/67/8 36/73/8
f 30/62/10 34/70/10 33/68/10
f 31/64/3 32/66/3 36/73/3
f 40/81/1 44/89/1 43/86/1
f 33/68/11 34/70/11 38/77/11
f 36/73/12 40/81/12 39/78/12
f 35/72/13 39/79/13 38/76/13
f 42/84/10 46/93/10 45/91/10
f 39/79/2 43/87/2 42/85/2
f 37/75/6 41/83/6 44/88/6
f 38/77/4 42/84/4 41/82/4
f 48/96/12 52/104/12 51/101/12
f 43/86/3 44/89/3 48/96/3
f 42/85/9 43/87/9 47/95/9
f 41/83/8 45/90/8 48/96/8
f 49/98/6 53/106/6 56/111/6
f 47/95/13 51/102/13 50/99/13
f 48/96/7 45/90/7 49/98/7
f 45/91/11 46/93/11 50/100/11
f 55/109/3 56/112/3 60/119/3
f 50/100/4 54/108/4 53/105/4
f 52/104/1 56/112/1 55/109/1
f 51/102/2 55/110/2 54/107/2
f 59/118/13 63/125/13 62/122/13
f 54/107/9 55/110/9 59/118/9
f 53/106/8 57/113/8 60/119/8
f 54/108/10 58/116/10 57/114/10
f 61/121/6 65/129/6 68/134/6
f 60/119/7 57/113/7 61/121/7
f 57/114/11 58/116/11 62/123/11
f 60/119/12 64/127/12 63/124/12
f 67/132/3 68/135/3 72/142/3
f 62/123/4 66/131/4 65/128/4
f 64/127/1 68/135/1 67/132/1
f 63/125/2 67/133/2 66/130/2
f 72/142/7 69/136/7 73/144/7
f 66/130/9 67/133/9 71/141/9
f 65/129/8 69/136/8 72/142/8
f 66/131/10 70/139/10 69/137/10
f 73/144/6 77/152/6 80/157/6
f 69/137/11 70/139/11 74/146/11
f 72/142/12 76/150/12 75/147/12
f 71/141/13 75/148/13 74/145/13
f 79/155/3 80/158/3 84/165/3
f 74/146/4 78/154/4 77/151/4
f 76/150/1 80/158/1 79/155/1
f 75/148/2 79/156/2 78/153/2
f 84/165/7 81/159/7 85/167/7
f 78/153/9 79/156/9 83/164/9
f 77/152/8 81/159/8 84/165/8
f 78/154/10 82/162/10 81/160/10
f 86/168/4 90/176/4 89/174/4
f 81/160/11 82/162/11 86/168/11
f 84/165/12 88/173/12 87/170/12
f 83/164/13 87/171/13 86/169/13
f 89/175/8 93/183/8 96/188/8
f 88/173/1 92/181/1 91/178/1
f 87/171/2 91/179/2 90/177/2
f 85/167/6 89/175/6 92/180/6
f 93/182/11 94/185/11 98/192/11
f 90/176/10 94/185/10 93/182/10
f 91/178/3 92/181/3 96/188/3
f 90/177/9 91/179/9 95/187/9
f 100/196/1 104/204/1 103/201/1
f 96/188/12 100/196/12 99/193/12
f 95/187/13 99/194/13 98/191/13
f 96/188/7 93/183/7 97/190/7
f 101/197/8 105/205/8 108/211/8
f 99/194/2 103/202/2 102/200/2
f 97/190/6 101/197/6 104/203/6
f 98/192/4 102/199/4 101/198/4
f 108/211/12 112/219/12 111/216/12
f 102/199/10 106/208/10 105/206/10
f 103/201/3 104/204/3 108/211/3
f 102/200/9 103/202/9 107/210/9
f 111/217/2 115/225/2 114/223/2
f 107/210/13 111/217/13 110/214/13
f 108/211/7 105/205/7 109/213/7
f 105/206/11 106/208/11 110/215/11
f 113/220/8 117/228/8 120/234/8
f 109/213/6 113/220/6 116/226/6
f 110/215/4 114/222/4 113/221/4
f 112/219/1 116/227/1 115/224/1
f 120/234/12 124/242/12 123/239/12
f 114/222/10 118/231/10 117/229/10
f 115/224/3 116/227/3 120/234/3
f 114/223/9 115/225/9 119/233/9
f 121/236/6 125/244/6 128/249/6
f 119/233/13 123/240/13 122/237/13
f 120/234/7 117/228/7 121/236/7
f 117/229/11 118/231/11 122/238/11
f 126/245/10 130/254/10 129/251/10
f 122/238/4 126/245/4 125/243/4
f 124/242/1 128/250/1 127/247/1
f 123/240/2 127/248/2 126/246/2
f 132/257/1 136/268/1 135/264/1
f 127/247/3 128/250/3 132/257/3
f 126/246/9 127/248/9 131/256/9
f 125/244/8 129/252/8 132/257/8
f 135/265/14 136/267/14 133/258/14
f 131/256/2 135/266/2 134/262/2
f 129/252/6 133/259/6 136/268/6
f 130/254/4 134/263/4 133/260/4
