# Blender 3.4.1
# www.blender.org
mtllib boss_AroundCore.mtl
o 立方体.002
v -1.000000 -2.492185 1.057239
v -1.000000 -1.298758 0.931805
v -1.000000 -2.701242 -0.931805
v -1.000000 -1.507815 -1.057239
v 1.000000 -2.492185 1.057239
v 1.000000 -1.298758 0.931805
v 1.000000 -2.701242 -0.931805
v 1.000000 -1.507815 -1.057239
v 0.000000 -2.701242 -0.931805
v 0.000000 -1.507815 -1.057239
v 0.000000 -2.492185 1.057239
v 0.000000 -1.298758 0.931805
v -1.000000 -1.895472 0.994522
v -1.000000 -2.104528 -0.994522
v 1.000000 -2.104528 -0.994522
v 1.000000 -1.895472 0.994522
v 0.000000 -1.961828 0.363184
v 0.000000 -2.104528 -0.994522
v -2.492185 -1.000000 1.057239
v -2.492185 1.000000 1.057239
v -2.701242 -1.000000 -0.931805
v -2.701242 1.000000 -0.931805
v -1.298758 -1.000000 0.931805
v -1.298758 1.000000 0.931805
v -1.507815 -1.000000 -1.057239
v -1.507815 1.000000 -1.057239
v -2.492185 0.010187 1.057239
v -2.701242 0.010187 -0.931805
v -1.507815 0.010187 -1.057239
v -1.298758 0.010187 0.931805
v -2.104528 -1.000000 -0.994522
v -2.104528 1.000000 -0.994522
v -1.895472 -1.000000 0.994522
v -1.895472 1.000000 0.994522
v -1.980496 0.010187 0.185568
v -2.104528 0.010187 -0.994522
v 1.298758 -1.000000 0.931805
v 1.298758 1.000000 0.931805
v 1.507815 -1.000000 -1.057239
v 1.507815 1.000000 -1.057239
v 2.492185 -1.000000 1.057239
v 2.492185 1.000000 1.057239
v 2.701242 -1.000000 -0.931805
v 2.701242 1.000000 -0.931805
v 2.104528 -1.000000 -0.994522
v 2.104528 1.000000 -0.994522
v 1.895472 -1.000000 0.994522
v 1.895472 1.000000 0.994522
v 1.298758 -0.000000 0.931805
v 1.507815 0.000000 -1.057239
v 2.701242 0.000000 -0.931805
v 2.492185 -0.000000 1.057239
v 1.964313 -0.000000 0.339537
v 2.104528 0.000000 -0.994522
v -1.000000 1.298758 0.931805
v -1.000000 2.492185 1.057239
v -1.000000 1.507815 -1.057239
v -1.000000 2.701242 -0.931805
v 1.000000 1.298758 0.931805
v 1.000000 2.492185 1.057239
v 1.000000 1.507815 -1.057239
v 1.000000 2.701242 -0.931805
v 0.000000 1.507815 -1.057239
v 0.000000 2.701242 -0.931805
v 0.000000 1.298758 0.931805
v 0.000000 2.492185 1.057239
v -1.000000 1.895472 0.994522
v -1.000000 2.104528 -0.994522
v 1.000000 2.104528 -0.994522
v 1.000000 1.895472 0.994522
v 0.000000 1.947769 0.496941
v 0.000000 2.104528 -0.994522
vn -1.0000 -0.0000 -0.0000
vn -0.0000 -0.1045 -0.9945
vn 1.0000 -0.0000 -0.0000
vn 0.3997 -0.5967 0.6958
vn -0.0000 -0.9945 0.1045
vn -0.0000 0.9945 -0.1045
vn -0.3997 -0.5967 0.6958
vn -0.0000 0.1045 0.9945
vn -0.3997 0.7283 0.5566
vn 0.3997 0.7283 0.5566
vn -0.9945 -0.0000 0.1045
vn -0.1045 -0.0000 -0.9945
vn 0.9945 -0.0000 -0.1045
vn 0.7751 -0.4384 0.4550
vn -0.0000 -1.0000 -0.0000
vn -0.0000 1.0000 -0.0000
vn 0.1045 -0.0000 0.9945
vn -0.6636 -0.4384 0.6062
vn 0.7781 0.4313 0.4567
vn -0.6661 0.4313 0.6085
vn -0.9945 -0.0000 -0.1045
vn 0.1045 -0.0000 -0.9945
vn 0.9945 -0.0000 0.1045
vn 0.6077 -0.4054 0.6829
vn -0.7364 -0.4054 0.5416
vn -0.1045 -0.0000 0.9945
vn -0.7364 0.4054 0.5416
vn 0.6077 0.4054 0.6829
vn -0.0000 0.1045 -0.9945
vn 0.3587 -0.6695 0.6505
vn -0.0000 -0.9945 -0.1045
vn -0.0000 0.9945 0.1045
vn -0.3587 -0.6695 0.6505
vn -0.0000 -0.1045 0.9945
vn -0.3587 0.5196 0.7755
vn 0.3587 0.5196 0.7755
vt 0.311088 0.965236
vt 0.555342 0.643491
vt 0.426644 0.214497
vt 0.684040 0.643491
vt 0.896657 0.000000
vt 0.213322 0.428994
vt 0.639966 0.214497
vt 0.812034 0.643491
vt 0.555342 0.857988
vt 0.684040 0.857988
vt 0.426644 0.428994
vt 0.940027 0.643491
vt 0.619339 0.965236
vt 0.426644 0.428994
vt 0.426644 0.643491
vt 0.555342 0.643491
vt 0.213322 0.214497
vt 0.896657 0.214497
vt 0.426644 0.428994
vt 0.639966 0.428994
vt 0.812034 0.857988
vt 0.426644 0.214497
vt 0.940027 0.857988
vt 0.555342 0.428994
vt 0.639966 0.321745
vt 0.812034 0.750739
vt 0.426644 0.321745
vt 0.940027 0.750739
vt 0.619339 0.857988
vt 0.311088 0.857988
vt 0.426644 0.321745
vt 0.884376 0.322377
vt 0.213322 0.321745
vt 0.896657 0.107248
vt 0.375084 0.965236
vt 0.960654 0.000000
vt 0.884376 0.214918
vt 0.619691 0.643491
vt 0.876030 0.643491
vt 0.619691 0.857988
vt 0.490993 0.428994
vt 0.876030 0.857988
vt 0.555342 0.965236
vt 0.960654 0.214497
vt 0.870950 0.428994
vt 0.490993 0.643491
vt 0.967770 0.107248
vt 0.810086 0.317717
vt 0.876030 0.750739
vt 0.119098 0.966329
vt 0.000000 0.643491
vt 0.684040 0.643491
vt 0.000000 0.428994
vt 0.683335 0.857988
vt 0.257396 0.643491
vt 0.684040 0.857988
vt 0.684040 0.428994
vt 0.213322 0.643491
vt 0.213322 0.428994
vt 0.257396 0.857988
vt 0.684040 0.643491
vt 0.000000 0.951270
vt 0.812739 0.643491
vt 0.213322 0.000000
vt 0.213322 0.214497
vt 0.386095 0.643491
vt 0.436538 0.891029
vt 0.426644 0.000000
vt 0.812739 0.428994
vt 0.812033 0.857988
vt 0.386095 0.857988
vt 0.812033 0.643491
vt 0.426644 0.214497
vt 0.119098 0.857988
vt 0.683335 0.964144
vt 0.733264 0.321295
vt 0.000000 0.535150
vt 0.213322 0.535150
vt 0.684040 0.749647
vt 0.426644 0.108341
vt 0.812033 0.749647
vt 0.055102 0.857988
vt 0.213322 0.108341
vt 0.892771 0.537335
vt 0.491346 0.981942
vt 0.748037 0.857988
vt 0.748389 0.428994
vt 0.321746 0.857988
vt 0.748037 0.643491
vt 0.055102 0.966329
vt 0.055102 0.983818
vt 0.719700 0.428994
vt 0.899498 0.428994
vt 0.748389 0.643491
vt 0.733264 0.214926
vt 0.899498 0.643491
vt 0.619339 0.857988
vt 0.321746 0.643491
vt 0.491346 0.857988
vt 0.639966 0.315383
vt 0.812739 0.537335
vt 0.748037 0.749647
vt 0.955756 0.428994
vt 0.000000 0.428994
vt 0.257397 0.643491
vt 0.000000 0.214497
vt 0.955756 0.214497
vt 0.768664 0.214497
vt 0.257397 0.857988
vt 0.427349 0.857988
vt 0.213322 0.428994
vt 0.213322 0.214497
vt 0.768664 0.000000
vt 0.427349 0.643491
vt 0.491345 0.965236
vt 0.128698 0.643491
vt 0.213322 0.428994
vt 0.213322 0.643491
vt 0.639966 0.214497
vt 0.311088 0.965236
vt 0.426644 0.428994
vt 0.128698 0.857988
vt 0.555342 0.857988
vt 0.639966 0.000000
vt 0.555342 0.643491
vt 0.426644 0.643491
vt 0.193048 0.857988
vt 0.491345 0.857988
vt 0.704315 0.000000
vt 0.491345 0.643491
vt 0.555342 0.965236
vt 0.193048 0.643491
vt 0.810086 0.214918
vt 0.891759 0.428994
vt 0.796659 0.428994
vt 0.891759 0.214497
vt 0.704315 0.214497
vt 0.247091 0.965236
vt 0.955756 0.321745
vt 0.000000 0.321745
vt 0.427349 0.750739
vt 0.213322 0.321745
vt 0.426644 0.536242
vt 0.555342 0.750739
vt 0.491345 0.857988
vt 0.311088 0.857988
vt 0.810086 0.322377
vt 0.213322 0.536242
vt 0.733264 0.317559
vt 0.884376 0.321745
vt 0.491345 0.750739
vt 0.899498 0.643491
vt 0.684040 0.643491
vt 0.000000 0.000000
vt 0.555342 0.643491
vt 0.247091 0.965236
vt 0.426644 0.214497
vt 0.213322 0.000000
vt 0.768664 0.000000
vt 0.684040 0.428994
vt 0.555342 0.428994
vt 0.639966 0.214497
vt 0.896657 0.000000
vt 0.899498 0.428994
vt 0.000000 0.214497
vt 0.128698 0.643491
vt 0.000000 0.643491
vt 0.426644 0.000000
vt 0.119098 0.965236
vt 0.128698 0.857988
vt 0.213322 0.214497
vt 0.768664 0.214497
vt 0.639966 0.000000
vt 0.896657 0.214497
vt 0.000000 0.857988
vt 0.213322 0.107248
vt 0.768664 0.107248
vt 0.639966 0.107248
vt 0.896657 0.107248
vt 0.000000 0.107248
vt 0.899498 0.536242
vt 1.000000 0.750950
vt 0.247091 0.857988
vt 0.426644 0.107248
vt 0.119098 0.857988
vt 0.986574 0.857567
vt 0.183095 0.965236
vt 0.963494 0.643491
vt 0.619691 0.643491
vt 0.832661 0.000000
vt 0.619691 0.428994
vt 0.064349 0.857988
vt 0.832661 0.214497
vt 1.000000 0.643491
vt 0.183095 0.965236
vt 0.963494 0.428994
vt 0.064349 0.643491
vt 0.940027 0.747189
vt 0.969103 0.536242
vt 0.832661 0.107248
s 0
usemtl マテリアル.001
f 2/4/1 14/40/1 13/38/1
f 10/28/2 15/42/2 18/49/2
f 8/24/3 16/46/3 15/41/3
f 12/34/4 13/36/4 17/47/4
f 7/20/5 11/31/5 9/25/5
f 4/11/6 12/33/6 10/27/6
f 10/27/6 6/17/6 8/22/6
f 9/25/5 1/3/5 3/7/5
f 16/44/7 12/34/7 17/47/7
f 4/12/2 18/49/2 14/39/2
f 14/39/2 9/26/2 3/8/2
f 16/43/8 11/29/8 5/13/8
f 11/30/8 13/35/8 1/1/8
f 15/41/3 5/15/3 7/19/3
f 18/49/2 7/21/2 9/26/2
f 13/38/1 3/9/1 1/2/1
f 2/4/1 4/10/1 14/40/1
f 10/28/2 8/23/2 15/42/2
f 8/24/3 6/16/3 16/46/3
f 12/34/8 2/5/8 13/36/8
f 7/20/5 5/14/5 11/31/5
f 4/11/6 2/6/6 12/33/6
f 10/27/6 12/33/6 6/17/6
f 9/25/5 11/31/5 1/3/5
f 16/44/8 6/18/8 12/34/8
f 4/12/2 10/28/2 18/49/2
f 14/39/2 18/49/2 9/26/2
f 16/45/9 17/48/9 11/32/9
f 11/32/10 17/48/10 13/37/10
f 15/41/3 16/46/3 5/15/3
f 18/49/2 15/42/2 7/21/2
f 13/38/1 14/40/1 3/9/1
f 20/53/11 28/78/11 27/77/11
f 32/89/12 29/81/12 36/102/12
f 26/73/13 30/83/13 29/80/13
f 34/95/14 27/76/14 35/100/14
f 25/69/15 33/94/15 31/87/15
f 22/60/16 34/98/16 32/88/16
f 33/90/17 27/74/17 19/50/17
f 29/80/13 23/64/13 25/68/13
f 36/102/12 25/70/12 31/86/12
f 27/77/11 21/58/11 19/51/11
f 28/79/12 31/86/12 21/56/12
f 30/82/17 33/91/17 23/62/17
f 32/88/16 24/66/16 26/71/16
f 31/87/15 19/52/15 21/57/15
f 30/84/18 34/96/18 35/101/18
f 22/61/12 36/102/12 28/79/12
f 20/53/11 22/59/11 28/78/11
f 32/89/12 26/72/12 29/81/12
f 26/73/13 24/65/13 30/83/13
f 34/97/17 20/54/17 27/75/17
f 25/69/15 23/63/15 33/94/15
f 22/60/16 20/55/16 34/98/16
f 33/92/19 35/100/19 27/76/19
f 29/80/13 30/83/13 23/64/13
f 36/102/12 29/81/12 25/70/12
f 27/77/11 28/78/11 21/58/11
f 28/79/12 36/102/12 31/86/12
f 30/84/20 35/101/20 33/93/20
f 32/88/16 34/98/16 24/66/16
f 31/87/15 33/94/15 19/52/15
f 30/85/17 24/67/17 34/99/17
f 22/61/12 32/89/12 36/102/12
f 38/106/21 50/142/21 49/140/21
f 46/130/22 51/144/22 54/151/22
f 44/126/23 52/148/23 51/143/23
f 48/136/24 49/139/24 53/150/24
f 43/122/15 47/132/15 45/127/15
f 40/113/16 48/137/16 46/129/16
f 46/129/16 42/119/16 44/124/16
f 45/127/15 37/105/15 39/109/15
f 52/147/25 48/135/25 53/149/25
f 40/114/22 54/151/22 50/141/22
f 50/141/22 45/128/22 39/110/22
f 52/145/26 47/131/26 41/115/26
f 47/134/26 49/139/26 37/103/26
f 51/143/23 41/117/23 43/121/23
f 54/151/22 43/123/22 45/128/22
f 49/140/21 39/111/21 37/104/21
f 38/106/21 40/112/21 50/142/21
f 46/130/22 44/125/22 51/144/22
f 44/126/23 42/118/23 52/148/23
f 48/136/26 38/107/26 49/139/26
f 43/122/15 41/116/15 47/132/15
f 40/113/16 38/108/16 48/137/16
f 46/129/16 48/137/16 42/119/16
f 45/127/15 47/132/15 37/105/15
f 52/146/26 42/120/26 48/138/26
f 40/114/22 46/130/22 54/151/22
f 50/141/22 54/151/22 45/128/22
f 52/147/27 53/149/27 47/133/27
f 47/134/28 53/150/28 49/139/28
f 51/143/23 52/148/23 41/117/23
f 54/151/22 51/144/22 43/123/22
f 49/140/21 50/142/21 39/111/21
f 56/155/1 68/191/1 67/189/1
f 64/179/29 69/193/29 72/200/29
f 62/175/3 70/197/3 69/192/3
f 66/182/30 67/186/30 71/198/30
f 61/171/31 65/180/31 63/176/31
f 58/162/32 66/184/32 64/178/32
f 64/178/32 60/168/32 62/173/32
f 63/176/31 55/154/31 57/158/31
f 70/194/33 66/182/33 71/198/33
f 58/163/29 72/200/29 68/190/29
f 68/190/29 63/177/29 57/159/29
f 70/196/34 65/181/34 59/164/34
f 65/181/34 67/188/34 55/152/34
f 69/192/3 59/166/3 61/170/3
f 72/200/29 61/172/29 63/177/29
f 67/189/1 57/160/1 55/153/1
f 56/155/1 58/161/1 68/191/1
f 64/179/29 62/174/29 69/193/29
f 62/175/3 60/167/3 70/197/3
f 66/183/34 56/156/34 67/187/34
f 61/171/31 59/165/31 65/180/31
f 58/162/32 56/157/32 66/184/32
f 64/178/32 66/184/32 60/168/32
f 63/176/31 65/180/31 55/154/31
f 70/195/34 60/169/34 66/185/34
f 58/163/29 64/179/29 72/200/29
f 68/190/29 72/200/29 63/177/29
f 70/196/35 71/199/35 65/181/35
f 65/181/36 71/199/36 67/188/36
f 69/192/3 70/197/3 59/166/3
f 72/200/29 69/193/29 61/172/29
f 67/189/1 68/191/1 57/160/1
