# Blender 3.3.1
# www.blender.org
mtllib firing_line.mtl
o 立方体
v 0.145971 -0.145971 4.269578
v 0.145971 0.145971 4.269578
v 0.145971 -0.145971 6.330407
v 0.145971 0.145971 6.330407
v -0.145971 -0.145971 4.269578
v -0.145971 0.145971 4.269578
v -0.145971 -0.145971 6.330407
v -0.145971 0.145971 6.330407
v 0.145972 0.145971 12.590717
v 0.145972 -0.145971 12.590717
v -0.145969 -0.145971 12.590717
v -0.145969 0.145971 12.590717
v 0.145973 0.145971 72.348442
v 0.145973 -0.145971 72.348442
v -0.145969 -0.145971 72.348442
v -0.145969 0.145971 72.348442
vn 1.0000 -0.0000 -0.0000
vn -1.0000 -0.0000 -0.0000
vn -0.0000 -0.0000 -1.0000
vn -0.0000 -1.0000 -0.0000
vn -0.0000 1.0000 -0.0000
vn -0.0000 -0.0000 1.0000
vt 0.064825 0.000000
vt 0.086433 0.021608
vt 0.021608 1.000000
vt 0.086433 0.000000
vt 0.086433 0.043216
vt 0.021608 1.000000
vt 0.064825 0.021608
vt 0.021608 0.978394
vt 0.021608 0.978394
vt 0.086433 0.021608
vt 0.108042 0.021608
vt 0.043217 1.000000
vt 0.064825 1.000000
vt 0.108042 0.043216
vt 0.000000 1.000000
vt 0.043217 0.978394
vt 0.064825 0.978394
vt 0.000000 0.978394
vt 0.021608 0.406204
vt 0.086433 0.593792
vt 0.064825 0.593792
vt 0.021608 0.406204
vt 0.043217 0.406204
vt 0.064825 0.406204
vt 0.000000 0.406204
vt 0.108042 0.021608
vt 0.021608 0.000000
vt 0.086433 1.000000
vt 0.108042 0.000000
vt 0.021608 0.000000
vt 0.064825 1.000000
vt 0.086433 0.000000
vt 0.043217 0.000000
vt 0.064825 0.000000
vt 0.086433 0.021608
vt 0.000000 0.000000
s 0
usemtl マテリアル
f 2/4/1 3/7/1 1/1/1
f 7/16/2 12/24/2 8/17/2
f 8/17/2 5/12/2 7/16/2
f 6/14/3 1/2/3 5/11/3
f 7/16/4 1/3/4 3/8/4
f 4/9/5 6/15/5 8/18/5
f 11/23/2 16/34/2 12/24/2
f 3/8/4 11/23/4 7/16/4
f 8/18/5 9/19/5 4/9/5
f 4/10/1 10/21/1 3/7/1
f 13/26/6 15/32/6 14/29/6
f 10/22/4 15/33/4 11/23/4
f 12/25/5 13/27/5 9/19/5
f 9/20/1 14/31/1 10/21/1
f 2/4/1 4/10/1 3/7/1
f 7/16/2 11/23/2 12/24/2
f 8/17/2 6/13/2 5/12/2
f 6/14/3 2/5/3 1/2/3
f 7/16/4 5/12/4 1/3/4
f 4/9/5 2/6/5 6/15/5
f 11/23/2 15/33/2 16/34/2
f 3/8/4 10/22/4 11/23/4
f 8/18/5 12/25/5 9/19/5
f 4/10/1 9/20/1 10/21/1
f 13/26/6 16/35/6 15/32/6
f 10/22/4 14/30/4 15/33/4
f 12/25/5 16/36/5 13/27/5
f 9/20/1 13/28/1 14/31/1
