# Blender 3.4.1
# www.blender.org
mtllib bullet.mtl
o 球
v 0.000000 0.707107 -0.707107
v 0.000000 -0.707107 -0.707107
v 0.000000 -0.831470 -0.555570
v 0.114671 0.980785 -0.157831
v 0.224936 0.923880 -0.309597
v 0.326556 0.831470 -0.449466
v 0.415627 0.707107 -0.572061
v 0.488726 0.555570 -0.672673
v 0.543043 0.382683 -0.747434
v 0.576491 0.195090 -0.793472
v 0.587785 0.000000 -0.809017
v 0.576491 -0.195090 -0.793472
v 0.543043 -0.382683 -0.747434
v 0.488726 -0.555570 -0.672673
v 0.415627 -0.707107 -0.572061
v 0.326556 -0.831470 -0.449466
v 0.224936 -0.923880 -0.309597
v 0.114671 -0.980785 -0.157831
v 0.185542 0.980785 -0.060286
v 0.363954 0.923880 -0.118256
v 0.528379 0.831470 -0.171681
v 0.672498 0.707107 -0.218508
v 0.790775 0.555570 -0.256938
v 0.878662 0.382683 -0.285494
v 0.932782 0.195090 -0.303079
v 0.951057 0.000000 -0.309017
v 0.932782 -0.195090 -0.303079
v 0.878662 -0.382683 -0.285494
v 0.790775 -0.555570 -0.256938
v 0.672498 -0.707107 -0.218508
v 0.528379 -0.831470 -0.171681
v 0.363954 -0.923880 -0.118256
v 0.185542 -0.980785 -0.060286
v 0.185542 0.980785 0.060286
v 0.363954 0.923880 0.118256
v 0.528379 0.831470 0.171681
v 0.672498 0.707107 0.218508
v 0.790775 0.555570 0.256938
v 0.878662 0.382683 0.285494
v 0.932782 0.195090 0.303079
v 0.951057 0.000000 0.309017
v 0.932782 -0.195090 0.303079
v 0.878662 -0.382683 0.285494
v 0.790775 -0.555570 0.256938
v 0.672498 -0.707107 0.218508
v 0.528379 -0.831470 0.171681
v 0.363954 -0.923880 0.118256
v 0.185542 -0.980785 0.060286
v 0.114671 0.980785 0.157831
v 0.224936 0.923880 0.309597
v 0.326556 0.831470 0.449466
v 0.415627 0.707107 0.572061
v 0.488726 0.555570 0.672673
v 0.543043 0.382683 0.747434
v 0.576491 0.195090 0.793472
v 0.587785 0.000000 0.809017
v 0.576491 -0.195090 0.793472
v 0.543043 -0.382683 0.747434
v 0.488726 -0.555570 0.672673
v 0.415627 -0.707107 0.572061
v 0.326556 -0.831470 0.449466
v 0.224936 -0.923880 0.309597
v 0.114671 -0.980785 0.157831
v 0.000000 0.980785 0.195090
v 0.000000 0.923880 0.382684
v 0.000000 0.831470 0.555570
v 0.000000 0.707107 0.707107
v 0.000000 0.555570 0.831470
v 0.000000 0.382683 0.923879
v 0.000000 0.195090 0.980785
v 0.000000 0.000000 1.000000
v 0.000000 -0.195090 0.980785
v 0.000000 -0.382683 0.923879
v 0.000000 -0.555570 0.831470
v 0.000000 -0.707107 0.707107
v 0.000000 -0.831470 0.555570
v 0.000000 -0.923880 0.382684
v 0.000000 -0.980785 0.195090
v 0.000000 1.000000 0.000000
v -0.114671 0.980785 0.157831
v -0.224936 0.923880 0.309597
v -0.326556 0.831470 0.449466
v -0.415627 0.707107 0.572061
v -0.488725 0.555570 0.672673
v -0.543043 0.382683 0.747434
v -0.576491 0.195090 0.793472
v -0.587785 0.000000 0.809017
v -0.576491 -0.195090 0.793472
v -0.543043 -0.382683 0.747434
v -0.488725 -0.555570 0.672673
v -0.415627 -0.707107 0.572061
v -0.326556 -0.831470 0.449466
v -0.224936 -0.923880 0.309597
v -0.114671 -0.980785 0.157831
v 0.000000 -1.000000 0.000000
v -0.185542 0.980785 0.060286
v -0.363954 0.923880 0.118256
v -0.528379 0.831470 0.171681
v -0.672498 0.707107 0.218508
v -0.790774 0.555570 0.256938
v -0.878662 0.382683 0.285495
v -0.932782 0.195090 0.303079
v -0.951057 0.000000 0.309017
v -0.932782 -0.195090 0.303079
v -0.878662 -0.382683 0.285495
v -0.790774 -0.555570 0.256938
v -0.672498 -0.707107 0.218508
v -0.528379 -0.831470 0.171681
v -0.363954 -0.923880 0.118256
v -0.185542 -0.980785 0.060286
v -0.185542 0.980785 -0.060286
v -0.363954 0.923880 -0.118256
v -0.528379 0.831470 -0.171681
v -0.672498 0.707107 -0.218508
v -0.790775 0.555570 -0.256938
v -0.878662 0.382683 -0.285494
v -0.932782 0.195090 -0.303079
v -0.951057 0.000000 -0.309017
v -0.932782 -0.195090 -0.303079
v -0.878662 -0.382683 -0.285494
v -0.790775 -0.555570 -0.256938
v -0.672498 -0.707107 -0.218508
v -0.528379 -0.831470 -0.171681
v -0.363954 -0.923880 -0.118256
v -0.185542 -0.980785 -0.060286
v -0.114671 0.980785 -0.157831
v -0.224936 0.923880 -0.309597
v -0.326556 0.831470 -0.449466
v -0.415627 0.707107 -0.572061
v -0.488726 0.555570 -0.672673
v -0.543043 0.382683 -0.747434
v -0.576491 0.195090 -0.793472
v -0.587785 0.000000 -0.809017
v -0.576491 -0.195090 -0.793472
v -0.543043 -0.382683 -0.747434
v -0.488726 -0.555570 -0.672673
v -0.415627 -0.707107 -0.572061
v -0.326556 -0.831470 -0.449466
v -0.224936 -0.923880 -0.309597
v -0.114671 -0.980785 -0.157831
v -0.000000 0.980785 -0.195090
v -0.000000 0.923880 -0.382684
v -0.000000 0.831470 -0.555570
v -0.000000 0.555570 -0.831470
v -0.000000 0.382683 -0.923880
v -0.000000 0.195090 -0.980785
v -0.000000 0.000000 -1.000000
v -0.000000 -0.195090 -0.980785
v -0.000000 -0.382683 -0.923880
v -0.000000 -0.555570 -0.831470
v -0.000000 -0.923880 -0.382684
v -0.000000 -0.980785 -0.195090
vn 0.2755 -0.4532 -0.8478
vn 0.2019 0.7571 -0.6213
vn 0.2436 -0.6153 -0.7497
vn 0.2436 0.6153 -0.7497
vn 0.2019 -0.7571 -0.6213
vn 0.2755 0.4532 -0.8478
vn 0.1514 -0.8718 -0.4660
vn 0.2969 0.2772 -0.9138
vn 0.0939 -0.9527 -0.2890
vn 0.3077 0.0933 -0.9469
vn 0.0318 0.9947 -0.0980
vn 0.0318 -0.9947 -0.0980
vn 0.3077 -0.0933 -0.9469
vn 0.0939 0.9527 -0.2890
vn 0.2969 -0.2772 -0.9138
vn 0.1514 0.8718 -0.4660
vn 0.2458 0.9527 -0.1786
vn 0.7773 -0.2772 -0.5648
vn 0.3964 0.8718 -0.2880
vn 0.7212 -0.4532 -0.5240
vn 0.5285 0.7571 -0.3840
vn 0.6378 -0.6153 -0.4634
vn 0.6378 0.6153 -0.4634
vn 0.5285 -0.7571 -0.3840
vn 0.7212 0.4532 -0.5240
vn 0.3964 -0.8718 -0.2880
vn 0.7773 0.2772 -0.5648
vn 0.2458 -0.9527 -0.1786
vn 0.8055 0.0933 -0.5852
vn 0.0833 0.9947 -0.0605
vn 0.0833 -0.9947 -0.0605
vn 0.8055 -0.0933 -0.5852
vn 0.8914 0.4532 -0.0000
vn 0.4899 -0.8718 -0.0000
vn 0.9608 0.2772 -0.0000
vn 0.3039 -0.9527 -0.0000
vn 0.9956 0.0933 -0.0000
vn 0.1030 0.9947 -0.0000
vn 0.1030 -0.9947 -0.0000
vn 0.9956 -0.0933 -0.0000
vn 0.3039 0.9527 -0.0000
vn 0.9608 -0.2772 -0.0000
vn 0.4899 0.8718 -0.0000
vn 0.8914 -0.4532 -0.0000
vn 0.6533 0.7571 -0.0000
vn 0.7883 -0.6153 -0.0000
vn 0.7883 0.6153 -0.0000
vn 0.6533 -0.7571 -0.0000
vn 0.7773 -0.2772 0.5648
vn 0.3964 0.8718 0.2880
vn 0.7212 -0.4532 0.5240
vn 0.5285 0.7571 0.3840
vn 0.6378 -0.6153 0.4634
vn 0.6378 0.6153 0.4634
vn 0.5285 -0.7571 0.3840
vn 0.7212 0.4532 0.5240
vn 0.3964 -0.8718 0.2880
vn 0.7773 0.2772 0.5648
vn 0.2458 -0.9527 0.1786
vn 0.8055 0.0933 0.5852
vn 0.0833 0.9947 0.0605
vn 0.0833 -0.9947 0.0605
vn 0.8055 -0.0933 0.5852
vn 0.2458 0.9527 0.1786
vn 0.1514 -0.8718 0.4660
vn 0.2969 0.2772 0.9138
vn 0.0939 -0.9527 0.2890
vn 0.3077 0.0933 0.9469
vn 0.0318 0.9947 0.0980
vn 0.0318 -0.9947 0.0980
vn 0.3077 -0.0933 0.9469
vn 0.0939 0.9527 0.2890
vn 0.2969 -0.2772 0.9138
vn 0.1514 0.8718 0.4660
vn 0.2755 -0.4532 0.8478
vn 0.2019 0.7571 0.6213
vn 0.2436 -0.6153 0.7497
vn 0.2436 0.6153 0.7497
vn 0.2019 -0.7571 0.6213
vn 0.2755 0.4532 0.8478
vn -0.2755 -0.4532 0.8478
vn -0.2019 0.7571 0.6213
vn -0.2436 -0.6153 0.7497
vn -0.2436 0.6153 0.7497
vn -0.2019 -0.7571 0.6213
vn -0.2755 0.4532 0.8478
vn -0.1514 -0.8718 0.4660
vn -0.2969 0.2772 0.9138
vn -0.0939 -0.9527 0.2890
vn -0.3077 0.0933 0.9469
vn -0.0318 0.9947 0.0980
vn -0.0318 -0.9947 0.0980
vn -0.3077 -0.0933 0.9469
vn -0.0939 0.9527 0.2890
vn -0.2969 -0.2772 0.9138
vn -0.1514 0.8718 0.4660
vn -0.2458 -0.9527 0.1786
vn -0.8055 0.0933 0.5852
vn -0.0833 0.9947 0.0605
vn -0.0833 -0.9947 0.0605
vn -0.8055 -0.0933 0.5852
vn -0.2458 0.9527 0.1786
vn -0.7773 -0.2772 0.5648
vn -0.3964 0.8718 0.2880
vn -0.7212 -0.4532 0.5240
vn -0.5285 0.7571 0.3840
vn -0.6378 -0.6153 0.4634
vn -0.6378 0.6153 0.4634
vn -0.5285 -0.7571 0.3840
vn -0.7212 0.4532 0.5240
vn -0.3964 -0.8718 0.2880
vn -0.7773 0.2772 0.5648
vn -0.6533 0.7571 -0.0000
vn -0.7883 -0.6153 -0.0000
vn -0.7883 0.6153 -0.0000
vn -0.6533 -0.7571 -0.0000
vn -0.8914 0.4532 -0.0000
vn -0.4899 -0.8718 -0.0000
vn -0.9608 0.2772 -0.0000
vn -0.3039 -0.9527 -0.0000
vn -0.9956 0.0933 -0.0000
vn -0.1030 0.9947 -0.0000
vn -0.1030 -0.9947 -0.0000
vn -0.9956 -0.0933 -0.0000
vn -0.3039 0.9527 -0.0000
vn -0.9608 -0.2772 -0.0000
vn -0.4899 0.8718 -0.0000
vn -0.8914 -0.4532 -0.0000
vn -0.8055 0.0933 -0.5852
vn -0.0833 0.9947 -0.0605
vn -0.0833 -0.9947 -0.0605
vn -0.8055 -0.0933 -0.5852
vn -0.2458 0.9527 -0.1786
vn -0.7773 -0.2772 -0.5648
vn -0.3964 0.8718 -0.2880
vn -0.7212 -0.4532 -0.5240
vn -0.5285 0.7571 -0.3840
vn -0.6378 -0.6153 -0.4634
vn -0.6378 0.6153 -0.4634
vn -0.5285 -0.7571 -0.3840
vn -0.7212 0.4532 -0.5240
vn -0.3964 -0.8718 -0.2880
vn -0.7773 0.2772 -0.5648
vn -0.2458 -0.9527 -0.1786
vn -0.2436 -0.6153 -0.7497
vn -0.2436 0.6153 -0.7497
vn -0.2019 -0.7571 -0.6213
vn -0.2755 0.4532 -0.8478
vn -0.1514 -0.8718 -0.4660
vn -0.2969 0.2772 -0.9138
vn -0.0939 -0.9527 -0.2890
vn -0.3077 0.0933 -0.9469
vn -0.0318 0.9947 -0.0980
vn -0.0318 -0.9947 -0.0980
vn -0.3077 -0.0933 -0.9469
vn -0.0939 0.9527 -0.2890
vn -0.2969 -0.2772 -0.9138
vn -0.1514 0.8718 -0.4660
vn -0.2755 -0.4532 -0.8478
vn -0.2019 0.7571 -0.6213
vt 0.700000 0.750000
vt 0.700000 0.250000
vt 0.700000 0.187500
vt 0.600000 0.937500
vt 0.600000 0.875000
vt 0.600000 0.812500
vt 0.600000 0.750000
vt 0.600000 0.687500
vt 0.600000 0.625000
vt 0.600000 0.562500
vt 0.600000 0.500000
vt 0.600000 0.437500
vt 0.600000 0.375000
vt 0.600000 0.312500
vt 0.600000 0.250000
vt 0.600000 0.187500
vt 0.600000 0.125000
vt 0.600000 0.062500
vt 0.500000 0.937500
vt 0.500000 0.875000
vt 0.500000 0.812500
vt 0.500000 0.750000
vt 0.500000 0.687500
vt 0.500000 0.625000
vt 0.500000 0.562500
vt 0.500000 0.500000
vt 0.500000 0.437500
vt 0.500000 0.375000
vt 0.500000 0.312500
vt 0.500000 0.250000
vt 0.500000 0.187500
vt 0.500000 0.125000
vt 0.500000 0.062500
vt 0.400000 0.937500
vt 0.400000 0.875000
vt 0.400000 0.812500
vt 0.400000 0.750000
vt 0.400000 0.687500
vt 0.400000 0.625000
vt 0.400000 0.562500
vt 0.400000 0.500000
vt 0.400000 0.437500
vt 0.400000 0.375000
vt 0.400000 0.312500
vt 0.400000 0.250000
vt 0.400000 0.187500
vt 0.400000 0.125000
vt 0.400000 0.062500
vt 0.300000 0.937500
vt 0.300000 0.875000
vt 0.300000 0.812500
vt 0.300000 0.750000
vt 0.300000 0.687500
vt 0.300000 0.625000
vt 0.300000 0.562500
vt 0.300000 0.500000
vt 0.300000 0.437500
vt 0.300000 0.375000
vt 0.300000 0.312500
vt 0.300000 0.250000
vt 0.300000 0.187500
vt 0.300000 0.125000
vt 0.300000 0.062500
vt 0.200000 0.937500
vt 0.200000 0.875000
vt 0.200000 0.812500
vt 0.200000 0.750000
vt 0.200000 0.687500
vt 0.200000 0.625000
vt 0.200000 0.562500
vt 0.200000 0.500000
vt 0.200000 0.437500
vt 0.200000 0.375000
vt 0.200000 0.312500
vt 0.200000 0.250000
vt 0.200000 0.187500
vt 0.200000 0.125000
vt 0.200000 0.062500
vt 0.650000 1.000000
vt 0.550000 1.000000
vt 0.450000 1.000000
vt 0.350000 1.000000
vt 0.250000 1.000000
vt 0.150000 1.000000
vt 0.050000 1.000000
vt 0.950000 1.000000
vt 0.850000 1.000000
vt 0.750000 1.000000
vt 0.100000 0.937500
vt 0.100000 0.875000
vt 0.100000 0.812500
vt 0.100000 0.750000
vt 0.100000 0.687500
vt 0.100000 0.625000
vt 0.100000 0.562500
vt 0.100000 0.500000
vt 0.100000 0.437500
vt 0.100000 0.375000
vt 0.100000 0.312500
vt 0.100000 0.250000
vt 0.100000 0.187500
vt 0.100000 0.125000
vt 0.100000 0.062500
vt 0.650000 0.000000
vt 0.550000 0.000000
vt 0.450000 0.000000
vt 0.350000 0.000000
vt 0.250000 0.000000
vt 0.150000 0.000000
vt 0.050000 0.000000
vt 0.950000 0.000000
vt 0.850000 0.000000
vt 0.750000 0.000000
vt 0.000000 0.937500
vt 1.000000 0.937500
vt 0.000000 0.875000
vt 1.000000 0.875000
vt 0.000000 0.812500
vt 1.000000 0.812500
vt 0.000000 0.750000
vt 1.000000 0.750000
vt 0.000000 0.687500
vt 1.000000 0.687500
vt 0.000000 0.625000
vt 1.000000 0.625000
vt 0.000000 0.562500
vt 1.000000 0.562500
vt 0.000000 0.500000
vt 1.000000 0.500000
vt 0.000000 0.437500
vt 1.000000 0.437500
vt 0.000000 0.375000
vt 1.000000 0.375000
vt 0.000000 0.312500
vt 1.000000 0.312500
vt 0.000000 0.250000
vt 1.000000 0.250000
vt 0.000000 0.187500
vt 1.000000 0.187500
vt 0.000000 0.125000
vt 1.000000 0.125000
vt 0.000000 0.062500
vt 1.000000 0.062500
vt 0.900000 0.937500
vt 0.900000 0.875000
vt 0.900000 0.812500
vt 0.900000 0.750000
vt 0.900000 0.687500
vt 0.900000 0.625000
vt 0.900000 0.562500
vt 0.900000 0.500000
vt 0.900000 0.437500
vt 0.900000 0.375000
vt 0.900000 0.312500
vt 0.900000 0.250000
vt 0.900000 0.187500
vt 0.900000 0.125000
vt 0.900000 0.062500
vt 0.800000 0.937500
vt 0.800000 0.875000
vt 0.800000 0.812500
vt 0.800000 0.750000
vt 0.800000 0.687500
vt 0.800000 0.625000
vt 0.800000 0.562500
vt 0.800000 0.500000
vt 0.800000 0.437500
vt 0.800000 0.375000
vt 0.800000 0.312500
vt 0.800000 0.250000
vt 0.800000 0.187500
vt 0.800000 0.125000
vt 0.800000 0.062500
vt 0.700000 0.937500
vt 0.700000 0.875000
vt 0.700000 0.812500
vt 0.700000 0.687500
vt 0.700000 0.625000
vt 0.700000 0.562500
vt 0.700000 0.500000
vt 0.700000 0.437500
vt 0.700000 0.375000
vt 0.700000 0.312500
vt 0.700000 0.125000
vt 0.700000 0.062500
s 0
usemtl マテリアル.001
f 150/183/1 149/182/1 13/13/1 14/14/1
f 1/1/2 143/176/2 6/6/2 7/7/2
f 2/2/3 150/183/3 14/14/3 15/15/3
f 144/177/4 1/1/4 7/7/4 8/8/4
f 3/3/5 2/2/5 15/15/5 16/16/5
f 145/178/6 144/177/6 8/8/6 9/9/6
f 151/184/7 3/3/7 16/16/7 17/17/7
f 146/179/8 145/178/8 9/9/8 10/10/8
f 152/185/9 151/184/9 17/17/9 18/18/9
f 147/180/10 146/179/10 10/10/10 11/11/10
f 141/174/11 79/79/11 4/4/11
f 95/104/12 152/185/12 18/18/12
f 148/181/13 147/180/13 11/11/13 12/12/13
f 142/175/14 141/174/14 4/4/14 5/5/14
f 149/182/15 148/181/15 12/12/15 13/13/15
f 143/176/16 142/175/16 5/5/16 6/6/16
f 5/5/17 4/4/17 19/19/17 20/20/17
f 13/13/18 12/12/18 27/27/18 28/28/18
f 6/6/19 5/5/19 20/20/19 21/21/19
f 14/14/20 13/13/20 28/28/20 29/29/20
f 7/7/21 6/6/21 21/21/21 22/22/21
f 15/15/22 14/14/22 29/29/22 30/30/22
f 8/8/23 7/7/23 22/22/23 23/23/23
f 16/16/24 15/15/24 30/30/24 31/31/24
f 9/9/25 8/8/25 23/23/25 24/24/25
f 17/17/26 16/16/26 31/31/26 32/32/26
f 10/10/27 9/9/27 24/24/27 25/25/27
f 18/18/28 17/17/28 32/32/28 33/33/28
f 11/11/29 10/10/29 25/25/29 26/26/29
f 4/4/30 79/80/30 19/19/30
f 95/105/31 18/18/31 33/33/31
f 12/12/32 11/11/32 26/26/32 27/27/32
f 24/24/33 23/23/33 38/38/33 39/39/33
f 32/32/34 31/31/34 46/46/34 47/47/34
f 25/25/35 24/24/35 39/39/35 40/40/35
f 33/33/36 32/32/36 47/47/36 48/48/36
f 26/26/37 25/25/37 40/40/37 41/41/37
f 19/19/38 79/81/38 34/34/38
f 95/106/39 33/33/39 48/48/39
f 27/27/40 26/26/40 41/41/40 42/42/40
f 20/20/41 19/19/41 34/34/41 35/35/41
f 28/28/42 27/27/42 42/42/42 43/43/42
f 21/21/43 20/20/43 35/35/43 36/36/43
f 29/29/44 28/28/44 43/43/44 44/44/44
f 22/22/45 21/21/45 36/36/45 37/37/45
f 30/30/46 29/29/46 44/44/46 45/45/46
f 23/23/47 22/22/47 37/37/47 38/38/47
f 31/31/48 30/30/48 45/45/48 46/46/48
f 43/43/49 42/42/49 57/57/49 58/58/49
f 36/36/50 35/35/50 50/50/50 51/51/50
f 44/44/51 43/43/51 58/58/51 59/59/51
f 37/37/52 36/36/52 51/51/52 52/52/52
f 45/45/53 44/44/53 59/59/53 60/60/53
f 38/38/54 37/37/54 52/52/54 53/53/54
f 46/46/55 45/45/55 60/60/55 61/61/55
f 39/39/56 38/38/56 53/53/56 54/54/56
f 47/47/57 46/46/57 61/61/57 62/62/57
f 40/40/58 39/39/58 54/54/58 55/55/58
f 48/48/59 47/47/59 62/62/59 63/63/59
f 41/41/60 40/40/60 55/55/60 56/56/60
f 34/34/61 79/82/61 49/49/61
f 95/107/62 48/48/62 63/63/62
f 42/42/63 41/41/63 56/56/63 57/57/63
f 35/35/64 34/34/64 49/49/64 50/50/64
f 62/62/65 61/61/65 76/76/65 77/77/65
f 55/55/66 54/54/66 69/69/66 70/70/66
f 63/63/67 62/62/67 77/77/67 78/78/67
f 56/56/68 55/55/68 70/70/68 71/71/68
f 49/49/69 79/83/69 64/64/69
f 95/108/70 63/63/70 78/78/70
f 57/57/71 56/56/71 71/71/71 72/72/71
f 50/50/72 49/49/72 64/64/72 65/65/72
f 58/58/73 57/57/73 72/72/73 73/73/73
f 51/51/74 50/50/74 65/65/74 66/66/74
f 59/59/75 58/58/75 73/73/75 74/74/75
f 52/52/76 51/51/76 66/66/76 67/67/76
f 60/60/77 59/59/77 74/74/77 75/75/77
f 53/53/78 52/52/78 67/67/78 68/68/78
f 61/61/79 60/60/79 75/75/79 76/76/79
f 54/54/80 53/53/80 68/68/80 69/69/80
f 74/74/81 73/73/81 89/98/81 90/99/81
f 67/67/82 66/66/82 82/91/82 83/92/82
f 75/75/83 74/74/83 90/99/83 91/100/83
f 68/68/84 67/67/84 83/92/84 84/93/84
f 76/76/85 75/75/85 91/100/85 92/101/85
f 69/69/86 68/68/86 84/93/86 85/94/86
f 77/77/87 76/76/87 92/101/87 93/102/87
f 70/70/88 69/69/88 85/94/88 86/95/88
f 78/78/89 77/77/89 93/102/89 94/103/89
f 71/71/90 70/70/90 86/95/90 87/96/90
f 64/64/91 79/84/91 80/89/91
f 95/109/92 78/78/92 94/103/92
f 72/72/93 71/71/93 87/96/93 88/97/93
f 65/65/94 64/64/94 80/89/94 81/90/94
f 73/73/95 72/72/95 88/97/95 89/98/95
f 66/66/96 65/65/96 81/90/96 82/91/96
f 94/103/97 93/102/97 109/140/97 110/142/97
f 87/96/98 86/95/98 102/126/98 103/128/98
f 80/89/99 79/85/99 96/114/99
f 95/110/100 94/103/100 110/142/100
f 88/97/101 87/96/101 103/128/101 104/130/101
f 81/90/102 80/89/102 96/114/102 97/116/102
f 89/98/103 88/97/103 104/130/103 105/132/103
f 82/91/104 81/90/104 97/116/104 98/118/104
f 90/99/105 89/98/105 105/132/105 106/134/105
f 83/92/106 82/91/106 98/118/106 99/120/106
f 91/100/107 90/99/107 106/134/107 107/136/107
f 84/93/108 83/92/108 99/120/108 100/122/108
f 92/101/109 91/100/109 107/136/109 108/138/109
f 85/94/110 84/93/110 100/122/110 101/124/110
f 93/102/111 92/101/111 108/138/111 109/140/111
f 86/95/112 85/94/112 101/124/112 102/126/112
f 99/121/113 98/119/113 113/146/113 114/147/113
f 107/137/114 106/135/114 121/154/114 122/155/114
f 100/123/115 99/121/115 114/147/115 115/148/115
f 108/139/116 107/137/116 122/155/116 123/156/116
f 101/125/117 100/123/117 115/148/117 116/149/117
f 109/141/118 108/139/118 123/156/118 124/157/118
f 102/127/119 101/125/119 116/149/119 117/150/119
f 110/143/120 109/141/120 124/157/120 125/158/120
f 103/129/121 102/127/121 117/150/121 118/151/121
f 96/115/122 79/86/122 111/144/122
f 95/111/123 110/143/123 125/158/123
f 104/131/124 103/129/124 118/151/124 119/152/124
f 97/117/125 96/115/125 111/144/125 112/145/125
f 105/133/126 104/131/126 119/152/126 120/153/126
f 98/119/127 97/117/127 112/145/127 113/146/127
f 106/135/128 105/133/128 120/153/128 121/154/128
f 118/151/129 117/150/129 132/165/129 133/166/129
f 111/144/130 79/87/130 126/159/130
f 95/112/131 125/158/131 140/173/131
f 119/152/132 118/151/132 133/166/132 134/167/132
f 112/145/133 111/144/133 126/159/133 127/160/133
f 120/153/134 119/152/134 134/167/134 135/168/134
f 113/146/135 112/145/135 127/160/135 128/161/135
f 121/154/136 120/153/136 135/168/136 136/169/136
f 114/147/137 113/146/137 128/161/137 129/162/137
f 122/155/138 121/154/138 136/169/138 137/170/138
f 115/148/139 114/147/139 129/162/139 130/163/139
f 123/156/140 122/155/140 137/170/140 138/171/140
f 116/149/141 115/148/141 130/163/141 131/164/141
f 124/157/142 123/156/142 138/171/142 139/172/142
f 117/150/143 116/149/143 131/164/143 132/165/143
f 125/158/144 124/157/144 139/172/144 140/173/144
f 137/170/145 136/169/145 150/183/145 2/2/145
f 130/163/146 129/162/146 1/1/146 144/177/146
f 138/171/147 137/170/147 2/2/147 3/3/147
f 131/164/148 130/163/148 144/177/148 145/178/148
f 139/172/149 138/171/149 3/3/149 151/184/149
f 132/165/150 131/164/150 145/178/150 146/179/150
f 140/173/151 139/172/151 151/184/151 152/185/151
f 133/166/152 132/165/152 146/179/152 147/180/152
f 126/159/153 79/88/153 141/174/153
f 95/113/154 140/173/154 152/185/154
f 134/167/155 133/166/155 147/180/155 148/181/155
f 127/160/156 126/159/156 141/174/156 142/175/156
f 135/168/157 134/167/157 148/181/157 149/182/157
f 128/161/158 127/160/158 142/175/158 143/176/158
f 136/169/159 135/168/159 149/182/159 150/183/159
f 129/162/160 128/161/160 143/176/160 1/1/160
