# Blender 3.4.1
# www.blender.org
mtllib boss_Colli.mtl
o ICO球
v 0.000000 -1.000000 0.000000
v 0.723607 -0.447220 0.525725
v -0.276388 -0.447220 0.850649
v -0.894426 -0.447216 0.000000
v -0.276388 -0.447220 -0.850649
v 0.723607 -0.447220 -0.525725
v 0.276388 0.447220 0.850649
v -0.723607 0.447220 0.525725
v -0.723607 0.447220 -0.525725
v 0.276388 0.447220 -0.850649
v 0.894426 0.447216 0.000000
v 0.000000 1.000000 0.000000
v -0.162456 -0.850654 0.499995
v 0.425323 -0.850654 0.309011
v 0.262869 -0.525738 0.809012
v 0.850648 -0.525736 0.000000
v 0.425323 -0.850654 -0.309011
v -0.525730 -0.850652 0.000000
v -0.688189 -0.525736 0.499997
v -0.162456 -0.850654 -0.499995
v -0.688189 -0.525736 -0.499997
v 0.262869 -0.525738 -0.809012
v 0.951058 0.000000 0.309013
v 0.951058 0.000000 -0.309013
v 0.000000 0.000000 1.000000
v 0.587786 0.000000 0.809017
v -0.951058 0.000000 0.309013
v -0.587786 0.000000 0.809017
v -0.587786 0.000000 -0.809017
v -0.951058 0.000000 -0.309013
v 0.587786 0.000000 -0.809017
v 0.000000 0.000000 -1.000000
v 0.688189 0.525736 0.499997
v -0.262869 0.525738 0.809012
v -0.850648 0.525736 0.000000
v -0.262869 0.525738 -0.809012
v 0.688189 0.525736 -0.499997
v 0.162456 0.850654 0.499995
v 0.525730 0.850652 0.000000
v -0.425323 0.850654 0.309011
v -0.425323 0.850654 -0.309011
v 0.162456 0.850654 -0.499995
vn 0.1024 -0.9435 0.3151
vn 0.7002 -0.6617 0.2680
vn -0.2680 -0.9435 0.1947
vn -0.2680 -0.9435 -0.1947
vn 0.1024 -0.9435 -0.3151
vn 0.9050 -0.3304 0.2680
vn 0.0247 -0.3304 0.9435
vn -0.8897 -0.3304 0.3151
vn -0.5746 -0.3304 -0.7488
vn 0.5346 -0.3304 -0.7779
vn 0.8026 -0.1256 0.5831
vn -0.3066 -0.1256 0.9435
vn -0.9921 -0.1256 -0.0000
vn -0.3066 -0.1256 -0.9435
vn 0.8026 -0.1256 -0.5831
vn 0.4089 0.6617 0.6284
vn -0.4713 0.6617 0.5831
vn -0.7002 0.6617 -0.2680
vn 0.0385 0.6617 -0.7488
vn 0.7240 0.6617 -0.1947
vn 0.2680 0.9435 -0.1947
vn 0.4911 0.7947 -0.3568
vn 0.4089 0.6617 -0.6284
vn -0.1024 0.9435 -0.3151
vn -0.1876 0.7947 -0.5773
vn -0.4713 0.6617 -0.5831
vn -0.3313 0.9435 -0.0000
vn -0.6071 0.7947 -0.0000
vn -0.7002 0.6617 0.2680
vn -0.1024 0.9435 0.3151
vn -0.1876 0.7947 0.5773
vn 0.0385 0.6617 0.7488
vn 0.2680 0.9435 0.1947
vn 0.4911 0.7947 0.3568
vn 0.7240 0.6617 0.1947
vn 0.8897 0.3304 -0.3151
vn 0.7947 0.1876 -0.5773
vn 0.5746 0.3304 -0.7488
vn -0.0247 0.3304 -0.9435
vn -0.3035 0.1876 -0.9342
vn -0.5346 0.3304 -0.7779
vn -0.9050 0.3304 -0.2680
vn -0.9822 0.1876 -0.0000
vn -0.9050 0.3304 0.2680
vn -0.5346 0.3304 0.7779
vn -0.3035 0.1876 0.9342
vn -0.0247 0.3304 0.9435
vn 0.5746 0.3304 0.7488
vn 0.7947 0.1876 0.5773
vn 0.8897 0.3304 0.3151
vn 0.3066 0.1256 -0.9435
vn 0.3035 -0.1876 -0.9342
vn 0.0247 -0.3304 -0.9435
vn -0.8026 0.1256 -0.5831
vn -0.7947 -0.1876 -0.5773
vn -0.8897 -0.3304 -0.3151
vn -0.8026 0.1256 0.5831
vn -0.7947 -0.1876 0.5773
vn -0.5746 -0.3304 0.7488
vn 0.3066 0.1256 0.9435
vn 0.3035 -0.1876 0.9342
vn 0.5346 -0.3304 0.7779
vn 0.9921 0.1256 -0.0000
vn 0.9822 -0.1876 -0.0000
vn 0.9050 -0.3304 -0.2680
vn 0.4713 -0.6617 -0.5831
vn 0.1876 -0.7947 -0.5773
vn -0.0385 -0.6617 -0.7488
vn -0.4089 -0.6617 -0.6284
vn -0.4911 -0.7947 -0.3568
vn -0.7240 -0.6617 -0.1947
vn -0.7240 -0.6617 0.1947
vn -0.4911 -0.7947 0.3568
vn -0.4089 -0.6617 0.6284
vn 0.7002 -0.6617 -0.2680
vn 0.6071 -0.7947 -0.0000
vn 0.3313 -0.9435 -0.0000
vn -0.0385 -0.6617 0.7488
vn 0.1876 -0.7947 0.5773
vn 0.4713 -0.6617 0.5831
vt 0.181819 0.000000
vt 0.909091 0.000000
vt 0.727273 0.000000
vt 0.545455 0.000000
vt 0.363637 0.000000
vt 0.412503 0.137844
vt 0.855905 0.513469
vt 0.440582 0.427121
vt 1.000000 0.157461
vt 0.855906 0.833967
vt 0.818182 0.157461
vt 0.636364 0.157461
vt 0.179206 0.669258
vt 0.705322 0.606486
vt 0.572754 0.415407
vt 0.416515 0.744237
vt 0.909091 0.314921
vt 0.727273 0.314921
vt 0.037291 0.322029
vt 0.545455 0.314921
vt 0.294838 0.422662
vt 0.733002 0.137846
vt 0.305351 0.146353
vt 0.136365 0.078731
vt 0.954545 0.078731
vt 0.705323 0.767910
vt 0.227273 0.078731
vt 0.284832 0.422662
vt 0.318182 0.078731
vt 0.705322 0.579527
vt 0.867547 0.673718
vt 0.737512 0.427121
vt 0.478559 0.000000
vt 0.139023 0.516853
vt 0.500000 0.078731
vt 0.315057 0.575066
vt 0.409092 0.078731
vt 0.772727 0.078731
vt 0.863636 0.078731
vt 0.909091 0.157461
vt 0.590909 0.078731
vt 0.681818 0.078731
vt 0.727273 0.157461
vt 0.315057 0.763449
vt 0.545455 0.157461
vt 0.572753 0.121601
vt 0.666944 0.000001
vt 0.030225 0.669259
vt 0.582260 0.498215
vt 0.420347 0.427121
vt 1.000000 0.767911
vt 0.478560 0.284747
vt 1.000000 0.579526
vt 0.863636 0.236191
vt 0.412503 0.579182
vt 0.954545 0.236191
vt 0.681818 0.236191
vt 0.772727 0.236191
vt 0.139022 0.821666
vt 0.000000 0.422662
vt 0.500000 0.236191
vt 0.590909 0.236191
vt 0.666946 0.284748
vt 0.568113 0.684611
vt 0.818182 0.314921
vt 0.010000 0.159875
vt 0.636364 0.314921
vt 0.819352 0.087993
vt 0.000000 0.821666
vt 0.171524 0.406339
vt 0.705322 0.766381
vt 0.412503 0.152321
vt 0.725160 0.427121
vt 0.329084 0.303079
vt 0.819351 0.263975
vt 0.863636 0.393651
vt 0.312676 0.000000
vt 0.535567 0.847348
vt 0.681818 0.393651
vt 0.167563 0.056616
vt 0.772727 0.393651
vt 0.177703 0.243928
s 0
usemtl マテリアル
f 1/1/1 14/27/1 13/24/1
f 2/7/2 14/30/2 16/32/2
f 1/2/3 13/25/3 18/39/3
f 1/3/4 18/38/4 20/42/4
f 1/4/5 20/41/5 17/35/5
f 2/6/6 16/33/6 23/46/6
f 3/10/7 15/31/7 25/51/7
f 4/11/8 19/40/8 27/54/8
f 5/12/9 21/43/9 29/57/9
f 6/13/10 22/44/10 31/59/10
f 2/6/11 23/46/11 26/52/11
f 3/8/12 25/49/12 28/55/12
f 4/11/13 27/54/13 30/58/13
f 5/12/14 29/57/14 32/62/14
f 6/13/15 31/59/15 24/48/15
f 7/15/16 33/63/16 38/73/16
f 8/16/17 34/64/17 40/78/17
f 9/18/18 35/65/18 41/81/18
f 10/19/19 36/66/19 42/82/19
f 11/21/20 37/70/20 39/74/20
f 39/74/21 42/82/21 12/23/21
f 39/74/22 37/70/22 42/82/22
f 37/70/23 10/19/23 42/82/23
f 42/82/24 41/80/24 12/23/24
f 42/82/25 36/66/25 41/80/25
f 36/67/26 9/18/26 41/79/26
f 41/80/27 40/77/27 12/23/27
f 41/81/28 35/65/28 40/76/28
f 35/65/29 8/17/29 40/76/29
f 40/77/30 38/72/30 12/23/30
f 40/78/31 34/64/31 38/71/31
f 34/64/32 7/14/32 38/71/32
f 38/72/33 39/74/33 12/23/33
f 38/73/34 33/63/34 39/75/34
f 33/63/35 11/22/35 39/75/35
f 24/47/36 37/68/36 11/22/36
f 24/48/37 31/59/37 37/69/37
f 31/60/38 10/19/38 37/70/38
f 32/62/39 36/67/39 10/20/39
f 32/62/40 29/57/40 36/67/40
f 29/57/41 9/18/41 36/67/41
f 30/58/42 35/65/42 9/18/42
f 30/58/43 27/54/43 35/65/43
f 27/54/44 8/17/44 35/65/44
f 28/55/45 34/64/45 8/16/45
f 28/55/46 25/49/46 34/64/46
f 25/49/47 7/14/47 34/64/47
f 26/52/48 33/63/48 7/15/48
f 26/52/49 23/46/49 33/63/49
f 23/46/50 11/22/50 33/63/50
f 31/61/51 32/62/51 10/20/51
f 31/61/52 22/45/52 32/62/52
f 22/45/53 5/12/53 32/62/53
f 29/57/54 30/58/54 9/18/54
f 29/57/55 21/43/55 30/58/55
f 21/43/56 4/11/56 30/58/56
f 27/54/57 28/56/57 8/17/57
f 27/54/58 19/40/58 28/56/58
f 19/40/59 3/9/59 28/56/59
f 25/50/60 26/52/60 7/15/60
f 25/51/61 15/31/61 26/53/61
f 15/31/62 2/7/62 26/53/62
f 23/46/63 24/47/63 11/22/63
f 23/46/64 16/33/64 24/47/64
f 16/34/65 6/13/65 24/48/65
f 17/36/66 22/44/66 6/13/66
f 17/35/67 20/41/67 22/45/67
f 20/41/68 5/12/68 22/45/68
f 20/42/69 21/43/69 5/12/69
f 20/42/70 18/38/70 21/43/70
f 18/38/71 4/11/71 21/43/71
f 18/39/72 19/40/72 4/11/72
f 18/39/73 13/25/73 19/40/73
f 13/25/74 3/9/74 19/40/74
f 16/34/75 17/36/75 6/13/75
f 16/34/76 14/28/76 17/36/76
f 14/29/77 1/5/77 17/37/77
f 13/26/78 15/31/78 3/10/78
f 13/26/79 14/30/79 15/31/79
f 14/30/80 2/7/80 15/31/80
