# Blender v2.92.0 OBJ File: 'smallenemy_kari.blend'
# www.blender.org
mtllib smallenemy_kari.mtl
o Cube
v 4.705097 1.000000 -2.156528
v 4.705097 -1.000000 -2.156528
v 4.705097 1.000000 0.765264
v 4.705097 -1.000000 1.000000
v -1.000000 1.698255 -2.156528
v -1.000000 -2.016472 -2.156528
v -1.000000 1.698255 1.000000
v -1.000000 -2.016472 1.000000
v 3.578800 1.000000 -1.433341
v 4.705097 -1.511108 -2.156528
v 3.559739 1.000000 0.178373
v 4.705097 -1.511108 1.000000
v 1.852549 -2.016472 -2.156528
v 1.852549 1.378106 0.228263
v 1.852549 -2.016472 1.000000
v 1.852549 1.378106 -1.471063
v 4.705097 0.000000 -2.156528
v -3.198203 0.000000 1.981422
v 4.705097 0.000000 1.000000
v -3.198203 0.000000 -3.104957
v 4.705097 0.000000 -2.156528
v 4.705097 0.000000 1.000000
v 1.852549 0.000000 -3.104957
v 1.852549 0.000000 1.981422
v -1.000000 -2.016472 -0.586468
v 4.705097 1.000000 -0.586468
v -1.000000 1.698255 -0.586468
v 4.705097 -1.511108 -0.586468
v 5.810649 1.000000 -0.586468
v 5.810649 -1.000000 -0.586468
v 1.852549 -2.016472 -0.586468
v 1.852549 1.378106 -0.586468
v 7.148728 0.000000 -0.586468
v -4.598282 0.000000 -0.586468
v 0.426274 -2.016472 -2.156528
v 0.426274 1.698255 0.710323
v 0.426274 -2.016472 1.000000
v 0.426274 1.698255 -1.788705
v -0.672827 0.000000 -3.104957
v -0.672827 0.000000 1.981422
v 0.426274 -2.016472 -0.586468
v 0.426274 1.698255 -0.586468
v -1.000000 1.698255 -1.371498
v 4.705097 -1.511108 -1.371498
v 5.257874 -1.000000 -1.371498
v -4.162644 0.000000 -1.845712
v -1.000000 -2.016472 -1.371498
v 4.141949 1.000000 -1.009905
v 5.257874 1.000000 -1.371498
v 1.852549 -2.016472 -1.371498
v 1.852549 1.378106 -1.028766
v 5.926913 0.000000 -1.371498
v 0.426274 1.698255 -1.187587
v 0.426274 -2.016472 -1.371498
v -1.000000 -2.016472 0.213548
v 4.127522 1.000000 -0.200778
v 5.253147 1.000000 0.095177
v 1.852549 -2.016472 0.213548
v 1.852549 1.378106 -0.175620
v 5.916466 0.000000 0.213548
v -1.000000 1.698255 0.213548
v 4.705097 -1.511108 0.213548
v 5.253147 -1.000000 0.213548
v -4.156659 0.000000 0.708454
v 0.426274 -2.016472 0.213548
v 0.426274 1.698255 0.067471
vt 0.129291 0.409572
vt 0.108624 0.317376
vt 0.149012 0.322186
vt 0.718914 0.155899
vt 0.641372 0.156928
vt 0.718914 0.000000
vt 0.228873 0.421432
vt 0.319556 0.587647
vt 0.233314 0.638053
vt 0.431626 0.549547
vt 0.381723 0.413594
vt 0.431482 0.413594
vt 0.703332 0.551122
vt 0.741476 0.500569
vt 0.759556 0.585506
vt 0.860339 0.309681
vt 0.971834 0.430314
vt 0.890907 0.497403
vt 0.618052 0.549547
vt 0.618052 0.549547
vt 0.618052 0.549547
vt 0.687927 0.508636
vt 0.741476 0.500569
vt 0.319556 0.080332
vt 0.243356 0.106686
vt 0.274323 0.040166
vt 0.616778 0.703658
vt 0.576913 0.716693
vt 0.595096 0.673294
vt 1.000000 0.226765
vt 0.867314 0.154841
vt 0.381667 0.337127
vt 0.431426 0.337127
vt 0.164397 0.133912
vt 0.037337 0.236263
vt 0.120083 0.066650
vt 0.174456 0.238708
vt 0.192415 0.101526
vt 0.830550 0.492959
vt 0.718914 0.311799
vt 0.860339 0.314317
vt 0.319557 0.680069
vt 0.449164 0.783984
vt 0.319557 0.746271
vt 0.800422 0.495533
vt 0.939406 0.489596
vt 0.340798 0.894917
vt 0.818502 0.539521
vt 0.531656 0.260661
vt 0.641372 0.075062
vt 0.581325 0.260661
vt 0.860339 0.138220
vt 0.860339 0.226268
vt 0.400059 0.023677
vt 0.481987 0.260661
vt 0.431370 0.260661
vt 0.533608 0.572126
vt 0.573040 0.642406
vt 0.512349 0.644981
vt 0.200268 0.241783
vt 0.220916 0.068583
vt 0.531768 0.413594
vt 0.482043 0.337127
vt 0.531712 0.337127
vt 0.535063 0.702474
vt 0.493998 0.688521
vt 0.182142 0.029484
vt 0.919356 0.582930
vt 1.000000 0.578606
vt 0.947806 0.668457
vt 0.531912 0.549547
vt 0.482099 0.413594
vt 0.072890 0.618569
vt 0.179553 0.415558
vt 0.150980 0.655655
vt 0.227862 0.331578
vt 0.190096 0.327079
vt 0.228056 0.245092
vt 0.319557 0.613866
vt 0.449164 0.666766
vt 0.381611 0.260661
vt 0.989028 0.134342
vt 0.874290 0.000000
vt 0.018669 0.392924
vt 0.149082 0.235686
vt 0.581381 0.337127
vt 0.255843 0.248402
vt 0.265628 0.336076
vt 0.581581 0.549547
vt 0.581437 0.413594
vt 0.890907 0.497403
vt 0.969703 0.534101
vt 0.451658 0.647556
vt 0.452933 0.674568
vt 0.265795 0.144790
vt 0.449164 0.594705
vt 0.561661 0.023356
vt 0.229089 0.000000
vt 0.000000 0.549586
vt 0.135992 0.058468
vt 0.319557 0.075062
vt 0.836894 0.584268
vt 0.719002 0.594341
vt 0.777948 0.671908
vt 0.482243 0.549547
vt 0.079881 0.403687
vt 0.648031 0.248717
vt 0.278193 0.427307
vt 0.381867 0.549547
vt 0.993410 0.321009
vt 0.618052 0.549547
vt 0.701419 0.445508
vt 0.618052 0.730670
vt 0.404312 0.943479
vt 0.481972 0.000000
vt 0.618052 0.549547
vt 0.449164 0.549547
vn 0.0000 1.0000 0.0000
vn 0.0000 0.5004 0.8658
vn -0.4118 0.8550 -0.3154
vn 0.1744 -0.9847 0.0000
vn 0.4946 0.4183 0.7618
vn 0.2185 0.7214 -0.6572
vn 0.0000 0.0000 1.0000
vn 0.6160 -0.6605 0.4293
vn 0.0000 0.6126 -0.7904
vn 0.0000 -1.0000 0.0000
vn 0.2135 0.7545 0.6206
vn 0.1617 0.9567 0.2421
vn 0.0773 -0.4363 0.8965
vn 0.0000 -0.4256 -0.9049
vn -0.5403 0.0000 -0.8415
vn 0.0752 -0.4244 -0.9023
vn 0.8204 0.0000 0.5717
vn -0.6760 -0.7369 0.0000
vn 0.0000 -0.4376 0.8992
vn -0.5383 -0.8427 0.0000
vn 0.7173 -0.4799 -0.5051
vn 0.1294 0.9765 -0.1721
vn 0.6789 -0.7342 0.0000
vn 0.4380 0.5861 -0.6817
vn -0.4224 0.8949 0.1440
vn 0.2190 0.9757 0.0000
vn 0.0000 0.4876 -0.8731
vn 0.0000 0.5992 0.8006
vn 0.5083 0.3401 -0.7912
vn 1.0000 0.0000 0.0000
vn 0.1609 0.9635 -0.2140
vn 0.8176 0.0000 -0.5757
vn -0.5376 -0.8432 0.0000
vn -0.4222 0.8946 -0.1461
vn -0.4122 0.8566 0.3104
vn 0.7206 -0.4780 0.5022
vn 0.1289 0.9727 0.1931
vn 0.4028 -0.8712 0.2807
vn 0.4401 0.5889 0.6779
vn 0.1703 0.5174 0.8386
vn -0.6114 0.7913 0.0000
vn 0.7657 0.1470 0.6262
vn 0.1786 0.7521 -0.6344
vn -1.0000 0.0000 0.0000
vn -0.4464 0.2045 0.8712
vn 0.3006 0.7291 -0.6149
vn 0.1887 0.7721 0.6069
vn 0.2162 0.9763 0.0000
vn 0.3253 0.0000 0.9456
vn 0.3155 0.0000 -0.9489
vn 0.5121 -0.3397 0.7889
vn -0.4640 -0.8114 -0.3554
vn -0.4822 -0.8605 0.1645
vn 0.4380 -0.5861 -0.6817
vn 0.1629 0.9866 0.0000
vn 0.4024 -0.8705 -0.2834
vn 0.7173 0.4799 -0.5051
vn -0.4738 0.8806 0.0000
vn 0.2152 0.5074 -0.8344
vn 0.3596 0.7336 0.5767
vn 0.6125 -0.6624 -0.4313
vn 0.2140 0.9768 0.0000
vn 0.5083 -0.3401 -0.7912
vn -0.4820 -0.8601 -0.1668
vn -0.4731 0.8810 0.0000
vn -0.4647 -0.8134 0.3499
vn 0.4401 -0.5889 0.6779
vn 0.1640 0.9865 0.0000
vn 0.6820 -0.7313 0.0000
vn 0.6672 0.5071 0.5456
usemtl Material
s off
f 61/1/1 36/2/1 66/3/1
f 40/4/2 7/5/2 18/6/2
f 43/7/3 20/8/3 46/9/3
f 62/10/4 15/11/4 58/12/4
f 57/13/5 22/14/5 60/15/5
f 23/16/6 9/17/6 17/18/6
f 2/19/7 17/20/7 21/21/7
f 3/22/7 19/23/7 22/14/7
f 1/24/1 48/25/1 49/26/1
f 4/27/8 62/28/8 63/29/8
f 38/30/9 23/16/9 39/31/9
f 58/12/10 37/32/10 65/33/10
f 11/34/11 24/35/11 19/36/11
f 59/37/12 11/34/12 56/38/12
f 12/39/13 24/40/13 15/41/13
f 35/42/14 23/43/14 13/44/14
f 4/45/7 19/23/7 12/39/7
f 1/46/15 17/18/15 9/17/15
f 23/43/16 10/47/16 13/44/16
f 63/48/17 22/14/17 4/45/17
f 47/49/18 20/50/18 6/51/18
f 40/4/19 8/52/19 37/53/19
f 64/54/20 25/55/20 55/56/20
f 52/57/21 30/58/21 45/59/21
f 48/25/22 32/60/22 26/61/22
f 50/62/10 41/63/10 54/64/10
f 45/59/23 28/65/23 44/66/23
f 57/67/1 26/61/1 56/38/1
f 52/68/24 29/69/24 33/70/24
f 44/71/4 31/72/4 50/62/4
f 64/73/25 27/74/25 34/75/25
f 53/76/1 27/74/1 42/77/1
f 51/78/26 42/77/26 32/60/26
f 54/64/10 25/55/10 47/49/10
f 24/40/19 37/53/19 15/41/19
f 6/79/14 39/80/14 35/42/14
f 65/33/10 8/81/10 55/56/10
f 5/82/27 39/31/27 20/83/27
f 24/35/28 36/2/28 40/84/28
f 66/3/26 14/85/26 59/37/26
f 35/86/10 47/49/10 6/51/10
f 16/87/26 53/76/26 51/78/26
f 38/88/1 43/7/1 53/76/1
f 10/89/4 50/62/4 13/90/4
f 21/91/29 49/92/29 52/68/29
f 2/93/30 44/66/30 10/94/30
f 13/90/10 54/64/10 35/86/10
f 9/95/31 51/78/31 48/25/31
f 21/96/32 45/59/32 2/93/32
f 25/55/33 46/97/33 47/49/33
f 49/26/1 26/61/1 29/98/1
f 27/74/34 46/9/34 34/75/34
f 42/77/26 59/37/26 32/60/26
f 41/63/10 55/56/10 25/55/10
f 18/99/35 61/1/35 64/73/35
f 3/100/1 56/38/1 11/34/1
f 18/101/18 55/56/18 8/81/18
f 30/102/36 60/15/36 63/48/36
f 32/60/37 56/38/37 26/61/37
f 31/72/10 65/33/10 41/63/10
f 63/29/38 28/65/38 30/58/38
f 29/103/39 60/15/39 33/104/39
f 28/105/4 58/12/4 31/72/4
f 27/74/1 66/3/1 42/77/1
f 61/1/1 7/106/1 36/2/1
f 40/4/40 36/107/40 7/5/40
f 43/7/41 5/108/41 20/8/41
f 62/10/4 12/109/4 15/11/4
f 57/13/42 3/22/42 22/14/42
f 23/16/43 16/110/43 9/17/43
f 2/19/44 10/111/44 17/20/44
f 3/22/45 11/112/45 19/23/45
f 1/24/1 9/95/1 48/25/1
f 4/27/30 12/113/30 62/28/30
f 38/30/46 16/110/46 23/16/46
f 58/12/10 15/11/10 37/32/10
f 11/34/47 14/85/47 24/35/47
f 59/37/48 14/85/48 11/34/48
f 12/39/49 19/23/49 24/40/49
f 35/42/14 39/80/14 23/43/14
f 4/45/7 22/14/7 19/23/7
f 1/46/7 21/91/7 17/18/7
f 23/43/50 17/114/50 10/47/50
f 63/48/51 60/15/51 22/14/51
f 47/49/52 46/97/52 20/50/52
f 40/4/19 18/6/19 8/52/19
f 64/54/53 34/115/53 25/55/53
f 52/57/54 33/116/54 30/58/54
f 48/25/55 51/78/55 32/60/55
f 50/62/10 31/72/10 41/63/10
f 45/59/56 30/58/56 28/65/56
f 57/67/1 29/98/1 26/61/1
f 52/68/57 49/92/57 29/69/57
f 44/71/4 28/105/4 31/72/4
f 64/73/58 61/1/58 27/74/58
f 53/76/1 43/7/1 27/74/1
f 51/78/26 53/76/26 42/77/26
f 54/64/10 41/63/10 25/55/10
f 24/40/19 40/4/19 37/53/19
f 6/79/14 20/117/14 39/80/14
f 65/33/10 37/32/10 8/81/10
f 5/82/59 38/30/59 39/31/59
f 24/35/60 14/85/60 36/2/60
f 66/3/26 36/2/26 14/85/26
f 35/86/10 54/64/10 47/49/10
f 16/87/26 38/88/26 53/76/26
f 38/88/1 5/108/1 43/7/1
f 10/89/4 44/71/4 50/62/4
f 21/91/32 1/46/32 49/92/32
f 2/93/61 45/59/61 44/66/61
f 13/90/10 50/62/10 54/64/10
f 9/95/62 16/87/62 51/78/62
f 21/96/63 52/57/63 45/59/63
f 25/55/64 34/115/64 46/97/64
f 49/26/1 48/25/1 26/61/1
f 27/74/65 43/7/65 46/9/65
f 42/77/26 66/3/26 59/37/26
f 41/63/10 65/33/10 55/56/10
f 18/99/41 7/106/41 61/1/41
f 3/100/1 57/67/1 56/38/1
f 18/101/66 64/54/66 55/56/66
f 30/102/67 33/104/67 60/15/67
f 32/60/68 59/37/68 56/38/68
f 31/72/10 58/12/10 65/33/10
f 63/29/69 62/28/69 28/65/69
f 29/103/70 57/13/70 60/15/70
f 28/105/4 62/10/4 58/12/4
f 27/74/1 61/1/1 66/3/1
