# Blender 3.3.1
# www.blender.org
mtllib enemyBul.mtl
o ICO球
v 0.000000 -1.000000 0.000000
v 0.723600 -0.447215 0.525720
v -0.276385 -0.447215 0.850640
v -0.894425 -0.447215 0.000000
v -0.276385 -0.447215 -0.850640
v 0.723600 -0.447215 -0.525720
v 0.276385 0.447215 0.850640
v -0.723600 0.447215 0.525720
v -0.723600 0.447215 -0.525720
v 0.276385 0.447215 -0.850640
v 0.894425 0.447215 0.000000
v 0.000000 1.000000 0.000000
vn 0.1876 -0.7947 0.5774
vn 0.6071 -0.7947 -0.0000
vn -0.4911 -0.7947 0.3568
vn -0.4911 -0.7947 -0.3568
vn 0.1876 -0.7947 -0.5774
vn 0.9822 -0.1876 -0.0000
vn 0.3035 -0.1876 0.9342
vn -0.7946 -0.1876 0.5774
vn -0.7946 -0.1876 -0.5774
vn 0.3035 -0.1876 -0.9342
vn 0.7946 0.1876 0.5774
vn -0.3035 0.1876 0.9342
vn -0.9822 0.1876 -0.0000
vn -0.3035 0.1876 -0.9342
vn 0.7946 0.1876 -0.5774
vn 0.4911 0.7947 0.3568
vn -0.1876 0.7947 0.5774
vn -0.6071 0.7947 -0.0000
vn -0.1876 0.7947 -0.5774
vn 0.4911 0.7947 -0.3568
vt 0.781830 0.929890
vt 0.281830 0.462805
vt 0.636455 0.403881
vt 0.864671 0.227106
vt 0.250000 0.552011
vt 0.864671 0.462805
vt 0.031831 0.462805
vt 0.750000 0.696350
vt 1.000000 0.840685
vt 0.500000 0.552010
vt 0.369263 0.462805
vt 0.432335 0.286028
vt 0.531831 0.929890
vt 0.250000 0.696345
vt 0.597475 0.117853
vt 0.750000 0.840685
vt 0.781831 0.462805
vt 0.000000 0.696350
vt 0.000000 0.176777
vt 1.000000 0.552011
vt 0.165140 0.344952
vt 0.500000 0.840685
vt 0.432335 0.235699
vt 0.281831 0.929890
vt 0.432335 0.000000
vt 0.500000 0.696345
vt 0.801598 0.000000
vt 0.250000 0.840685
vt 0.750000 0.552010
vt 0.031830 0.929890
vt 0.204120 0.058924
vt 0.531830 0.462805
s 0
usemtl マテリアル.001
f 1/3/1 2/4/1 3/6/1
f 2/4/2 1/3/2 6/15/2
f 1/1/3 3/8/3 4/9/3
f 1/2/4 4/10/4 5/14/4
f 1/3/5 5/12/5 6/15/5
f 2/4/6 6/15/6 11/27/6
f 3/7/7 2/5/7 7/18/7
f 4/9/8 3/8/8 8/20/8
f 5/14/9 4/10/9 9/22/9
f 6/16/10 5/13/10 10/26/10
f 2/5/11 11/28/11 7/18/11
f 3/8/12 7/17/12 8/20/12
f 4/11/13 8/21/13 9/23/13
f 5/14/14 9/22/14 10/24/14
f 6/16/15 10/26/15 11/29/15
f 7/18/16 11/28/16 12/30/16
f 8/21/17 7/19/17 12/31/17
f 9/23/18 8/21/18 12/31/18
f 10/25/19 9/23/19 12/31/19
f 11/29/20 10/26/20 12/32/20
